<svg xmlns="http://www.w3.org/2000/svg" xmlns:xlink="http://www.w3.org/1999/xlink" contentStyleType="text/css" data-diagram-type="SEQUENCE" height="1329px" preserveAspectRatio="none" style="width:1714px;height:1329px;background:#FFFFFF;" version="1.1" viewBox="0 0 1714 1329" width="1714px" zoomAndPan="magnify"><title>Sequence - Loan request end-to-end</title><defs/><g><text fill="#000000" font-family="sans-serif" font-size="14" font-weight="bold" lengthAdjust="spacing" textLength="287.8887" x="709.0706" y="27.9951">Sequence - Loan request end-to-end</text><rect fill="none" height="397.2031" style="stroke:#000000;stroke-width:1.5;" width="1687.0298" x="10" y="337.3906"/><rect fill="none" height="191.6016" style="stroke:#000000;stroke-width:1.5;" width="1667.0298" x="20" y="535.9922"/><rect fill="none" height="294.1328" style="stroke:#000000;stroke-width:1.5;" width="1667.0298" x="20" y="937.3906"/><g><title>Client</title><rect fill="#000000" fill-opacity="0.00000" height="1129.9297" width="8" x="49.2651" y="118.5938"/><line style="stroke:#181818;stroke-width:0.5;stroke-dasharray:5,5;" x1="53" x2="53" y1="118.5938" y2="1248.5234"/></g><g><title>GraphQL BackEnd for FrontEnd</title><rect fill="#000000" fill-opacity="0.00000" height="1129.9297" width="8" x="498.9707" y="118.5938"/><line style="stroke:#181818;stroke-width:0.5;stroke-dasharray:5,5;" x1="502.8213" x2="502.8213" y1="118.5938" y2="1248.5234"/></g><g><title>Loan Orchestrator .REST.</title><rect fill="#000000" fill-opacity="0.00000" height="1129.9297" width="8" x="831.2764" y="118.5938"/><line style="stroke:#181818;stroke-width:0.5;stroke-dasharray:5,5;" x1="835.0059" x2="835.0059" y1="118.5938" y2="1248.5234"/></g><g><title>Risk Scoring .gRPC.</title><rect fill="#000000" fill-opacity="0.00000" height="1129.9297" width="8" x="1071.1475" y="118.5938"/><line style="stroke:#181818;stroke-width:0.5;stroke-dasharray:5,5;" x1="1075.0327" x2="1075.0327" y1="118.5938" y2="1248.5234"/></g><g><title>Bank Check Validation .SOAP.</title><rect fill="#000000" fill-opacity="0.00000" height="1129.9297" width="8" x="1269.5869" y="118.5938"/><line style="stroke:#181818;stroke-width:0.5;stroke-dasharray:5,5;" x1="1273.2622" x2="1273.2622" y1="118.5938" y2="1248.5234"/></g><g><title>Provider Funding .REST.</title><rect fill="#000000" fill-opacity="0.00000" height="1129.9297" width="8" x="1484.0942" y="118.5938"/><line style="stroke:#181818;stroke-width:0.5;stroke-dasharray:5,5;" x1="1487.9116" x2="1487.9116" y1="118.5938" y2="1248.5234"/></g><g><title>PostgreSQL</title><rect fill="#000000" fill-opacity="0.00000" height="1129.9297" width="8" x="1629.6533" y="118.5938"/><line style="stroke:#181818;stroke-width:0.5;stroke-dasharray:5,5;" x1="1633.2769" x2="1633.2769" y1="118.5938" y2="1248.5234"/></g><g class="participant participant-head" data-participant="Client"><text fill="#000000" font-family="sans-serif" font-size="14" lengthAdjust="spacing" textLength="40.5303" x="30" y="115.292">Client</text><ellipse cx="53.2651" cy="50.7969" fill="#E2E2F0" rx="8" ry="8" style="stroke:#181818;stroke-width:0.5;"/><path d="M53.2651,58.7969 L53.2651,85.7969 M40.2651,66.7969 L66.2651,66.7969 M53.2651,85.7969 L40.2651,100.7969 M53.2651,85.7969 L66.2651,100.7969" fill="none" style="stroke:#181818;stroke-width:0.5;"/></g><g class="participant participant-tail" data-participant="Client"><text fill="#000000" font-family="sans-serif" font-size="14" lengthAdjust="spacing" textLength="40.5303" x="30" y="1260.5186">Client</text><ellipse cx="53.2651" cy="1272.3203" fill="#E2E2F0" rx="8" ry="8" style="stroke:#181818;stroke-width:0.5;"/><path d="M53.2651,1280.3203 L53.2651,1307.3203 M40.2651,1288.3203 L66.2651,1288.3203 M53.2651,1307.3203 L40.2651,1322.3203 M53.2651,1307.3203 L66.2651,1322.3203" fill="none" style="stroke:#181818;stroke-width:0.5;"/></g><g class="participant participant-head" data-participant="BFF"><rect fill="#E2E2F0" height="30.2969" rx="2.5" ry="2.5" style="stroke:#181818;stroke-width:0.5;" width="232.2988" x="386.8213" y="87.2969"/><text fill="#000000" font-family="sans-serif" font-size="14" lengthAdjust="spacing" textLength="218.2988" x="393.8213" y="107.292">GraphQL BackEnd for FrontEnd</text></g><g class="participant participant-tail" data-participant="BFF"><rect fill="#E2E2F0" height="30.2969" rx="2.5" ry="2.5" style="stroke:#181818;stroke-width:0.5;" width="232.2988" x="386.8213" y="1247.5234"/><text fill="#000000" font-family="sans-serif" font-size="14" lengthAdjust="spacing" textLength="218.2988" x="393.8213" y="1267.5186">GraphQL BackEnd for FrontEnd</text></g><g class="participant participant-head" data-participant="ORCH"><rect fill="#E2E2F0" height="30.2969" rx="2.5" ry="2.5" style="stroke:#181818;stroke-width:0.5;" width="192.541" x="739.0059" y="87.2969"/><text fill="#000000" font-family="sans-serif" font-size="14" lengthAdjust="spacing" textLength="178.541" x="746.0059" y="107.292">Loan Orchestrator (REST)</text></g><g class="participant participant-tail" data-participant="ORCH"><rect fill="#E2E2F0" height="30.2969" rx="2.5" ry="2.5" style="stroke:#181818;stroke-width:0.5;" width="192.541" x="739.0059" y="1247.5234"/><text fill="#000000" font-family="sans-serif" font-size="14" lengthAdjust="spacing" textLength="178.541" x="746.0059" y="1267.5186">Loan Orchestrator (REST)</text></g><g class="participant participant-head" data-participant="RISK"><rect fill="#E2E2F0" height="30.2969" rx="2.5" ry="2.5" style="stroke:#181818;stroke-width:0.5;" width="152.2295" x="999.0327" y="87.2969"/><text fill="#000000" font-family="sans-serif" font-size="14" lengthAdjust="spacing" textLength="138.2295" x="1006.0327" y="107.292">Risk Scoring (gRPC)</text></g><g class="participant participant-tail" data-participant="RISK"><rect fill="#E2E2F0" height="30.2969" rx="2.5" ry="2.5" style="stroke:#181818;stroke-width:0.5;" width="152.2295" x="999.0327" y="1247.5234"/><text fill="#000000" font-family="sans-serif" font-size="14" lengthAdjust="spacing" textLength="138.2295" x="1006.0327" y="1267.5186">Risk Scoring (gRPC)</text></g><g class="participant participant-head" data-participant="SOAP"><rect fill="#E2E2F0" height="30.2969" rx="2.5" ry="2.5" style="stroke:#181818;stroke-width:0.5;" width="224.6494" x="1161.2622" y="87.2969"/><text fill="#000000" font-family="sans-serif" font-size="14" lengthAdjust="spacing" textLength="210.6494" x="1168.2622" y="107.292">Bank Check Validation (SOAP)</text></g><g class="participant participant-tail" data-participant="SOAP"><rect fill="#E2E2F0" height="30.2969" rx="2.5" ry="2.5" style="stroke:#181818;stroke-width:0.5;" width="224.6494" x="1161.2622" y="1247.5234"/><text fill="#000000" font-family="sans-serif" font-size="14" lengthAdjust="spacing" textLength="210.6494" x="1168.2622" y="1267.5186">Bank Check Validation (SOAP)</text></g><g class="participant participant-head" data-participant="PROV"><rect fill="#E2E2F0" height="30.2969" rx="2.5" ry="2.5" style="stroke:#181818;stroke-width:0.5;" width="184.3652" x="1395.9116" y="87.2969"/><text fill="#000000" font-family="sans-serif" font-size="14" lengthAdjust="spacing" textLength="170.3652" x="1402.9116" y="107.292">Provider Funding (REST)</text></g><g class="participant participant-tail" data-participant="PROV"><rect fill="#E2E2F0" height="30.2969" rx="2.5" ry="2.5" style="stroke:#181818;stroke-width:0.5;" width="184.3652" x="1395.9116" y="1247.5234"/><text fill="#000000" font-family="sans-serif" font-size="14" lengthAdjust="spacing" textLength="170.3652" x="1402.9116" y="1267.5186">Provider Funding (REST)</text></g><g class="participant participant-head" data-participant="DB"><text fill="#000000" font-family="sans-serif" font-size="14" lengthAdjust="spacing" textLength="80.7529" x="1590.2769" y="115.292">PostgreSQL</text><path d="M1615.6533,66.2969 C1615.6533,56.2969 1633.6533,56.2969 1633.6533,56.2969 C1633.6533,56.2969 1651.6533,56.2969 1651.6533,66.2969 L1651.6533,92.2969 C1651.6533,102.2969 1633.6533,102.2969 1633.6533,102.2969 C1633.6533,102.2969 1615.6533,102.2969 1615.6533,92.2969 L1615.6533,66.2969" fill="#E2E2F0" style="stroke:#181818;stroke-width:0.5;"/><path d="M1615.6533,66.2969 C1615.6533,76.2969 1633.6533,76.2969 1633.6533,76.2969 C1633.6533,76.2969 1651.6533,76.2969 1651.6533,66.2969" fill="none" style="stroke:#181818;stroke-width:0.5;"/></g><g class="participant participant-tail" data-participant="DB"><text fill="#000000" font-family="sans-serif" font-size="14" lengthAdjust="spacing" textLength="80.7529" x="1590.2769" y="1260.5186">PostgreSQL</text><path d="M1615.6533,1273.8203 C1615.6533,1263.8203 1633.6533,1263.8203 1633.6533,1263.8203 C1633.6533,1263.8203 1651.6533,1263.8203 1651.6533,1273.8203 L1651.6533,1299.8203 C1651.6533,1309.8203 1633.6533,1309.8203 1633.6533,1309.8203 C1633.6533,1309.8203 1615.6533,1309.8203 1615.6533,1299.8203 L1615.6533,1273.8203" fill="#E2E2F0" style="stroke:#181818;stroke-width:0.5;"/><path d="M1615.6533,1273.8203 C1615.6533,1283.8203 1633.6533,1283.8203 1633.6533,1283.8203 C1633.6533,1283.8203 1651.6533,1283.8203 1651.6533,1273.8203" fill="none" style="stroke:#181818;stroke-width:0.5;"/></g><rect fill="#EEEEEE" height="3" style="stroke:#EEEEEE;stroke-width:1;" width="1707.0298" x="0" y="149.1602"/><line style="stroke:#000000;stroke-width:1;" x1="0" x2="1707.0298" y1="149.1602" y2="149.1602"/><line style="stroke:#000000;stroke-width:1;" x1="0" x2="1707.0298" y1="152.1602" y2="152.1602"/><rect fill="#EEEEEE" height="23.1328" style="stroke:#000000;stroke-width:2;" width="118.8569" x="794.0864" y="138.5938"/><text fill="#000000" font-family="sans-serif" font-size="13" font-weight="bold" lengthAdjust="spacing" textLength="100.3311" x="800.0864" y="154.6606">Loan creation</text><g class="message" data-participant-1="Client" data-participant-2="BFF"><polygon fill="#181818" points="490.9707,188.8594,500.9707,192.8594,490.9707,196.8594,494.9707,192.8594" style="stroke:#181818;stroke-width:1;"/><line style="stroke:#181818;stroke-width:1;" x1="53.2651" x2="496.9707" y1="192.8594" y2="192.8594"/><text fill="#000000" font-family="sans-serif" font-size="13" lengthAdjust="spacing" textLength="425.7056" x="60.2651" y="187.7935">mutation createLoan(customerId, accountId, type, amount, desc)</text></g><g class="message" data-participant-1="BFF" data-participant-2="ORCH"><polygon fill="#181818" points="823.2764,217.9922,833.2764,221.9922,823.2764,225.9922,827.2764,221.9922" style="stroke:#181818;stroke-width:1;"/><line style="stroke:#181818;stroke-width:1;" x1="502.9707" x2="829.2764" y1="221.9922" y2="221.9922"/><text fill="#000000" font-family="sans-serif" font-size="13" lengthAdjust="spacing" textLength="118.6567" x="509.9707" y="216.9263">POST /loans { ... }</text></g><g class="message" data-participant-1="ORCH" data-participant-2="DB"><polygon fill="#181818" points="1621.6533,247.125,1631.6533,251.125,1621.6533,255.125,1625.6533,251.125" style="stroke:#181818;stroke-width:1;"/><line style="stroke:#181818;stroke-width:1;" x1="835.2764" x2="1627.6533" y1="251.125" y2="251.125"/><text fill="#000000" font-family="sans-serif" font-size="13" lengthAdjust="spacing" textLength="278.0845" x="842.2764" y="246.0591">INSERT loan_application(status='pending')</text></g><g class="message" data-participant-1="ORCH" data-participant-2="DB"><polygon fill="#181818" points="1621.6533,276.2578,1631.6533,280.2578,1621.6533,284.2578,1625.6533,280.2578" style="stroke:#181818;stroke-width:1;"/><line style="stroke:#181818;stroke-width:1;" x1="835.2764" x2="1627.6533" y1="280.2578" y2="280.2578"/><text fill="#000000" font-family="sans-serif" font-size="13" lengthAdjust="spacing" textLength="178.9087" x="842.2764" y="275.1919">INSERT loan_monitoring(...)</text></g><g class="message" data-participant-1="ORCH" data-participant-2="ORCH"><line style="stroke:#181818;stroke-width:1;" x1="835.2764" x2="877.2764" y1="309.3906" y2="309.3906"/><line style="stroke:#181818;stroke-width:1;" x1="877.2764" x2="877.2764" y1="309.3906" y2="322.3906"/><line style="stroke:#181818;stroke-width:1;" x1="836.2764" x2="877.2764" y1="322.3906" y2="322.3906"/><polygon fill="#181818" points="846.2764,318.3906,836.2764,322.3906,846.2764,326.3906,842.2764,322.3906" style="stroke:#181818;stroke-width:1;"/><text fill="#000000" font-family="sans-serif" font-size="13" lengthAdjust="spacing" textLength="177.8232" x="842.2764" y="304.3247">check MAX_LOAN_AMOUNT</text></g><path d="M10,337.3906 L74.4429,337.3906 L74.4429,344.5234 L64.4429,354.5234 L10,354.5234 L10,337.3906" fill="#EEEEEE" style="stroke:#000000;stroke-width:1.5;"/><rect fill="none" height="397.2031" style="stroke:#000000;stroke-width:1.5;" width="1687.0298" x="10" y="337.3906"/><text fill="#000000" font-family="sans-serif" font-size="13" font-weight="bold" lengthAdjust="spacing" textLength="19.4429" x="25" y="350.4575">alt</text><text fill="#000000" font-family="sans-serif" font-size="11" font-weight="bold" lengthAdjust="spacing" textLength="201.7651" x="89.4429" y="349.6011">[amount &gt; MAX_LOAN_AMOUNT]</text><g class="message" data-participant-1="ORCH" data-participant-2="DB"><polygon fill="#181818" points="1621.6533,371.6563,1631.6533,375.6563,1621.6533,379.6563,1625.6533,375.6563" style="stroke:#181818;stroke-width:1;"/><line style="stroke:#181818;stroke-width:1;" x1="835.2764" x2="1627.6533" y1="375.6563" y2="375.6563"/><text fill="#000000" font-family="sans-serif" font-size="13" lengthAdjust="spacing" textLength="315.1548" x="842.2764" y="370.5903">UPDATE loan_application SET status='cancelled'</text></g><g class="message" data-participant-1="ORCH" data-participant-2="BFF"><polygon fill="#181818" points="513.9707,400.7891,503.9707,404.7891,513.9707,408.7891,509.9707,404.7891" style="stroke:#181818;stroke-width:1;"/><line style="stroke:#181818;stroke-width:1;stroke-dasharray:2,2;" x1="507.9707" x2="834.2764" y1="404.7891" y2="404.7891"/><text fill="#000000" font-family="sans-serif" font-size="13" lengthAdjust="spacing" textLength="129.9873" x="519.9707" y="399.7231">{status:'cancelled'}</text></g><g class="message" data-participant-1="BFF" data-participant-2="Client"><polygon fill="#181818" points="64.2651,429.9219,54.2651,433.9219,64.2651,437.9219,60.2651,433.9219" style="stroke:#181818;stroke-width:1;"/><line style="stroke:#181818;stroke-width:1;stroke-dasharray:2,2;" x1="58.2651" x2="501.9707" y1="433.9219" y2="433.9219"/><text fill="#000000" font-family="sans-serif" font-size="13" lengthAdjust="spacing" textLength="61.9722" x="70.2651" y="428.856">cancelled</text></g><g class="message" data-participant-1="Client" data-participant-2="BFF"><polygon fill="#181818" points="490.9707,443.9219,500.9707,447.9219,490.9707,451.9219,494.9707,447.9219" style="stroke:#181818;stroke-width:1;"/><line style="stroke:#181818;stroke-width:1;stroke-dasharray:2,2;" x1="53.2651" x2="496.9707" y1="447.9219" y2="447.9219"/></g><line style="stroke:#000000;stroke-width:1;stroke-dasharray:2,2;" x1="10" x2="1697.0298" y1="456.9219" y2="456.9219"/><text fill="#000000" font-family="sans-serif" font-size="11" font-weight="bold" lengthAdjust="spacing" textLength="79.1216" x="15" y="467.1323">[amount OK]</text><g class="message" data-participant-1="ORCH" data-participant-2="RISK"><polygon fill="#181818" points="1063.1475,487.8594,1073.1475,491.8594,1063.1475,495.8594,1067.1475,491.8594" style="stroke:#181818;stroke-width:1;"/><line style="stroke:#181818;stroke-width:1;" x1="835.2764" x2="1069.1475" y1="491.8594" y2="491.8594"/><text fill="#000000" font-family="sans-serif" font-size="13" lengthAdjust="spacing" textLength="215.8711" x="842.2764" y="486.7935">Score(customerId, amount, type)</text></g><g class="message" data-participant-1="RISK" data-participant-2="ORCH"><polygon fill="#181818" points="846.2764,516.9922,836.2764,520.9922,846.2764,524.9922,842.2764,520.9922" style="stroke:#181818;stroke-width:1;"/><line style="stroke:#181818;stroke-width:1;stroke-dasharray:2,2;" x1="840.2764" x2="1074.1475" y1="520.9922" y2="520.9922"/><text fill="#000000" font-family="sans-serif" font-size="13" lengthAdjust="spacing" textLength="74.3438" x="852.2764" y="515.9263">{riskLevel}</text></g><path d="M20,535.9922 L84.4429,535.9922 L84.4429,543.125 L74.4429,553.125 L20,553.125 L20,535.9922" fill="#EEEEEE" style="stroke:#000000;stroke-width:1.5;"/><rect fill="none" height="191.6016" style="stroke:#000000;stroke-width:1.5;" width="1667.0298" x="20" y="535.9922"/><text fill="#000000" font-family="sans-serif" font-size="13" font-weight="bold" lengthAdjust="spacing" textLength="19.4429" x="35" y="549.0591">alt</text><text fill="#000000" font-family="sans-serif" font-size="11" font-weight="bold" lengthAdjust="spacing" textLength="244.0947" x="99.4429" y="548.2026">[riskLevel='high' and amount&gt;=20000]</text><g class="message" data-participant-1="ORCH" data-participant-2="DB"><polygon fill="#181818" points="1621.6533,570.2578,1631.6533,574.2578,1621.6533,578.2578,1625.6533,574.2578" style="stroke:#181818;stroke-width:1;"/><line style="stroke:#181818;stroke-width:1;" x1="835.2764" x2="1627.6533" y1="574.2578" y2="574.2578"/><text fill="#000000" font-family="sans-serif" font-size="13" lengthAdjust="spacing" textLength="308.293" x="842.2764" y="569.1919">UPDATE loan_application SET status='declined'</text></g><g class="message" data-participant-1="ORCH" data-participant-2="BFF"><polygon fill="#181818" points="513.9707,599.3906,503.9707,603.3906,513.9707,607.3906,509.9707,603.3906" style="stroke:#181818;stroke-width:1;"/><line style="stroke:#181818;stroke-width:1;stroke-dasharray:2,2;" x1="507.9707" x2="834.2764" y1="603.3906" y2="603.3906"/><text fill="#000000" font-family="sans-serif" font-size="13" lengthAdjust="spacing" textLength="123.1255" x="519.9707" y="598.3247">{status:'declined'}</text></g><g class="message" data-participant-1="BFF" data-participant-2="Client"><polygon fill="#181818" points="64.2651,628.5234,54.2651,632.5234,64.2651,636.5234,60.2651,632.5234" style="stroke:#181818;stroke-width:1;"/><line style="stroke:#181818;stroke-width:1;stroke-dasharray:2,2;" x1="58.2651" x2="501.9707" y1="632.5234" y2="632.5234"/><text fill="#000000" font-family="sans-serif" font-size="13" lengthAdjust="spacing" textLength="55.1104" x="70.2651" y="627.4575">declined</text></g><g class="message" data-participant-1="Client" data-participant-2="BFF"><polygon fill="#181818" points="490.9707,642.5234,500.9707,646.5234,490.9707,650.5234,494.9707,646.5234" style="stroke:#181818;stroke-width:1;"/><line style="stroke:#181818;stroke-width:1;stroke-dasharray:2,2;" x1="53.2651" x2="496.9707" y1="646.5234" y2="646.5234"/></g><line style="stroke:#000000;stroke-width:1;stroke-dasharray:2,2;" x1="20" x2="1687.0298" y1="655.5234" y2="655.5234"/><text fill="#000000" font-family="sans-serif" font-size="11" font-weight="bold" lengthAdjust="spacing" textLength="64.1147" x="25" y="665.7339">[continue]</text><g class="message" data-participant-1="ORCH" data-participant-2="BFF"><polygon fill="#181818" points="513.9707,686.4609,503.9707,690.4609,513.9707,694.4609,509.9707,690.4609" style="stroke:#181818;stroke-width:1;"/><line style="stroke:#181818;stroke-width:1;stroke-dasharray:2,2;" x1="507.9707" x2="834.2764" y1="690.4609" y2="690.4609"/><text fill="#000000" font-family="sans-serif" font-size="13" lengthAdjust="spacing" textLength="308.3057" x="519.9707" y="685.395">{status:'pending'} (waiting for cashier's check)</text></g><g class="message" data-participant-1="BFF" data-participant-2="Client"><polygon fill="#181818" points="64.2651,715.5938,54.2651,719.5938,64.2651,723.5938,60.2651,719.5938" style="stroke:#181818;stroke-width:1;"/><line style="stroke:#181818;stroke-width:1;stroke-dasharray:2,2;" x1="58.2651" x2="501.9707" y1="719.5938" y2="719.5938"/><text fill="#000000" font-family="sans-serif" font-size="13" lengthAdjust="spacing" textLength="52.8442" x="70.2651" y="714.5278">pending</text></g><rect fill="#EEEEEE" height="3" style="stroke:#EEEEEE;stroke-width:1;" width="1707.0298" x="0" y="762.1602"/><line style="stroke:#000000;stroke-width:1;" x1="0" x2="1707.0298" y1="762.1602" y2="762.1602"/><line style="stroke:#000000;stroke-width:1;" x1="0" x2="1707.0298" y1="765.1602" y2="765.1602"/><rect fill="#EEEEEE" height="23.1328" style="stroke:#000000;stroke-width:2;" width="218.8325" x="744.0986" y="751.5938"/><text fill="#000000" font-family="sans-serif" font-size="13" font-weight="bold" lengthAdjust="spacing" textLength="200.3066" x="750.0986" y="767.6606">Cashier's check submission</text><g class="message" data-participant-1="Client" data-participant-2="BFF"><polygon fill="#181818" points="490.9707,801.8594,500.9707,805.8594,490.9707,809.8594,494.9707,805.8594" style="stroke:#181818;stroke-width:1;"/><line style="stroke:#181818;stroke-width:1;" x1="53.2651" x2="496.9707" y1="805.8594" y2="805.8594"/><text fill="#000000" font-family="sans-serif" font-size="13" lengthAdjust="spacing" textLength="388.978" x="60.2651" y="800.7935">mutation submitCheck(loanId, accountId, checkNumber, ...)</text></g><g class="message" data-participant-1="BFF" data-participant-2="ORCH"><polygon fill="#181818" points="823.2764,830.9922,833.2764,834.9922,823.2764,838.9922,827.2764,834.9922" style="stroke:#181818;stroke-width:1;"/><line style="stroke:#181818;stroke-width:1;" x1="502.9707" x2="829.2764" y1="834.9922" y2="834.9922"/><text fill="#000000" font-family="sans-serif" font-size="13" lengthAdjust="spacing" textLength="193.8828" x="509.9707" y="829.9263">POST /loans/{id}/check { ... }</text></g><g class="message" data-participant-1="ORCH" data-participant-2="DB"><polygon fill="#181818" points="1621.6533,860.125,1631.6533,864.125,1621.6533,868.125,1625.6533,864.125" style="stroke:#181818;stroke-width:1;"/><line style="stroke:#181818;stroke-width:1;" x1="835.2764" x2="1627.6533" y1="864.125" y2="864.125"/><text fill="#000000" font-family="sans-serif" font-size="13" lengthAdjust="spacing" textLength="242.7534" x="842.2764" y="859.0591">INSERT cashier_check(is_valid=false)</text></g><g class="message" data-participant-1="ORCH" data-participant-2="SOAP"><polygon fill="#181818" points="1261.5869,889.2578,1271.5869,893.2578,1261.5869,897.2578,1265.5869,893.2578" style="stroke:#181818;stroke-width:1;"/><line style="stroke:#181818;stroke-width:1;" x1="835.2764" x2="1267.5869" y1="893.2578" y2="893.2578"/><text fill="#000000" font-family="sans-serif" font-size="13" lengthAdjust="spacing" textLength="164.9375" x="842.2764" y="888.1919">ValidateCashierCheck(...)</text></g><g class="message" data-participant-1="SOAP" data-participant-2="ORCH"><polygon fill="#181818" points="846.2764,918.3906,836.2764,922.3906,846.2764,926.3906,842.2764,922.3906" style="stroke:#181818;stroke-width:1;"/><line style="stroke:#181818;stroke-width:1;stroke-dasharray:2,2;" x1="840.2764" x2="1272.5869" y1="922.3906" y2="922.3906"/><text fill="#000000" font-family="sans-serif" font-size="13" lengthAdjust="spacing" textLength="125.6265" x="852.2764" y="917.3247">{isValid:true|false}</text></g><path d="M20,937.3906 L84.4429,937.3906 L84.4429,944.5234 L74.4429,954.5234 L20,954.5234 L20,937.3906" fill="#EEEEEE" style="stroke:#000000;stroke-width:1.5;"/><rect fill="none" height="294.1328" style="stroke:#000000;stroke-width:1.5;" width="1667.0298" x="20" y="937.3906"/><text fill="#000000" font-family="sans-serif" font-size="13" font-weight="bold" lengthAdjust="spacing" textLength="19.4429" x="35" y="950.4575">alt</text><text fill="#000000" font-family="sans-serif" font-size="11" font-weight="bold" lengthAdjust="spacing" textLength="91.1421" x="99.4429" y="949.6011">[invalid check]</text><g class="message" data-participant-1="ORCH" data-participant-2="DB"><polygon fill="#181818" points="1621.6533,971.6563,1631.6533,975.6563,1621.6533,979.6563,1625.6533,975.6563" style="stroke:#181818;stroke-width:1;"/><line style="stroke:#181818;stroke-width:1;" x1="835.2764" x2="1627.6533" y1="975.6563" y2="975.6563"/><text fill="#000000" font-family="sans-serif" font-size="13" lengthAdjust="spacing" textLength="308.293" x="842.2764" y="970.5903">UPDATE loan_application SET status='declined'</text></g><g class="message" data-participant-1="ORCH" data-participant-2="BFF"><polygon fill="#181818" points="513.9707,1000.7891,503.9707,1004.7891,513.9707,1008.7891,509.9707,1004.7891" style="stroke:#181818;stroke-width:1;"/><line style="stroke:#181818;stroke-width:1;stroke-dasharray:2,2;" x1="507.9707" x2="834.2764" y1="1004.7891" y2="1004.7891"/><text fill="#000000" font-family="sans-serif" font-size="13" lengthAdjust="spacing" textLength="123.1255" x="519.9707" y="999.7231">{status:'declined'}</text></g><g class="message" data-participant-1="BFF" data-participant-2="Client"><polygon fill="#181818" points="64.2651,1029.9219,54.2651,1033.9219,64.2651,1037.9219,60.2651,1033.9219" style="stroke:#181818;stroke-width:1;"/><line style="stroke:#181818;stroke-width:1;stroke-dasharray:2,2;" x1="58.2651" x2="501.9707" y1="1033.9219" y2="1033.9219"/><text fill="#000000" font-family="sans-serif" font-size="13" lengthAdjust="spacing" textLength="55.1104" x="70.2651" y="1028.856">declined</text></g><line style="stroke:#000000;stroke-width:1;stroke-dasharray:2,2;" x1="20" x2="1687.0298" y1="1042.9219" y2="1042.9219"/><text fill="#000000" font-family="sans-serif" font-size="11" font-weight="bold" lengthAdjust="spacing" textLength="79.5405" x="25" y="1053.1323">[valid check]</text><g class="message" data-participant-1="ORCH" data-participant-2="DB"><polygon fill="#181818" points="1621.6533,1073.8594,1631.6533,1077.8594,1621.6533,1081.8594,1625.6533,1077.8594" style="stroke:#181818;stroke-width:1;"/><line style="stroke:#181818;stroke-width:1;" x1="835.2764" x2="1627.6533" y1="1077.8594" y2="1077.8594"/><text fill="#000000" font-family="sans-serif" font-size="13" lengthAdjust="spacing" textLength="314.8945" x="842.2764" y="1072.7935">UPDATE loan_application SET status='approved'</text></g><g class="message" data-participant-1="ORCH" data-participant-2="PROV"><polygon fill="#181818" points="1476.0942,1102.9922,1486.0942,1106.9922,1476.0942,1110.9922,1480.0942,1106.9922" style="stroke:#181818;stroke-width:1;"/><line style="stroke:#181818;stroke-width:1;" x1="835.2764" x2="1482.0942" y1="1106.9922" y2="1106.9922"/><text fill="#000000" font-family="sans-serif" font-size="13" lengthAdjust="spacing" textLength="307.1187" x="842.2764" y="1101.9263">POST /fund {applicationId, accountId, amount}</text></g><g class="message" data-participant-1="PROV" data-participant-2="ORCH"><polygon fill="#181818" points="846.2764,1132.125,836.2764,1136.125,846.2764,1140.125,842.2764,1136.125" style="stroke:#181818;stroke-width:1;"/><line style="stroke:#181818;stroke-width:1;stroke-dasharray:2,2;" x1="840.2764" x2="1487.0942" y1="1136.125" y2="1136.125"/><text fill="#000000" font-family="sans-serif" font-size="13" lengthAdjust="spacing" textLength="185.2627" x="852.2764" y="1131.0591">{transferId, status:'funded'}</text></g><g class="message" data-participant-1="ORCH" data-participant-2="DB"><polygon fill="#181818" points="1621.6533,1161.2578,1631.6533,1165.2578,1621.6533,1169.2578,1625.6533,1165.2578" style="stroke:#181818;stroke-width:1;"/><line style="stroke:#181818;stroke-width:1;" x1="835.2764" x2="1627.6533" y1="1165.2578" y2="1165.2578"/><text fill="#000000" font-family="sans-serif" font-size="13" lengthAdjust="spacing" textLength="393.2183" x="842.2764" y="1160.1919">UPDATE loan_monitoring SET loan_provider_status='funded'</text></g><g class="message" data-participant-1="ORCH" data-participant-2="BFF"><polygon fill="#181818" points="513.9707,1190.3906,503.9707,1194.3906,513.9707,1198.3906,509.9707,1194.3906" style="stroke:#181818;stroke-width:1;"/><line style="stroke:#181818;stroke-width:1;stroke-dasharray:2,2;" x1="507.9707" x2="834.2764" y1="1194.3906" y2="1194.3906"/><text fill="#000000" font-family="sans-serif" font-size="13" lengthAdjust="spacing" textLength="201.4175" x="519.9707" y="1189.3247">{status:'approved', transferId}</text></g><g class="message" data-participant-1="BFF" data-participant-2="Client"><polygon fill="#181818" points="64.2651,1219.5234,54.2651,1223.5234,64.2651,1227.5234,60.2651,1223.5234" style="stroke:#181818;stroke-width:1;"/><line style="stroke:#181818;stroke-width:1;stroke-dasharray:2,2;" x1="58.2651" x2="501.9707" y1="1223.5234" y2="1223.5234"/><text fill="#000000" font-family="sans-serif" font-size="13" lengthAdjust="spacing" textLength="61.7119" x="70.2651" y="1218.4575">approved</text></g><!--SRC=[fLLHRzem47xFhpZrXI2LTjfZfI01fLjLIbX2gxqXrp5W4PpCTZfDZF- -ypa4Q4ithRoG-Bwx- -xptSLAcmj8nOzAA2wW0wE2AT3ktLWGAklOeeD_GS2uBJGCSYcK3KgchUIoPCh2sHVDokMt4VGPNmrL1dF4tUX2MNmv0sQWVtDpx459OisNc4Gp5pTCXkcqJUWu6NmzXYVIh23bXPPg0U4YcGmyChbDxuwHVQPMC5WAle97bikCMLae2DEuD_4kxkdOPQABPva9f5ofZ1BigKoI-3708Eo96O7GmjY55kct4Lcl-q4GHLunheNF5KM1rmWwNLSuNC6wijv68E7m8Q-CBTP2tsRdm3WlAcNTe_rL2ZnOk_Tpo8JXxS05mLXE5WmsYTCfNEOOmy06BYukO1kG2I7NVGJSZjDXCWM7cB6op2MdvA514fM9MgMWCbljqsxhGabBQeUOO0-iAN3IzxxtVJQAU-DPxpv-64y3bjkQE7HV6G6EaZrChdlJuIkEa0wdiEF96JPadekirNWtYcuywEe0j4KKAOMW-WAGwSwCHYrifLKWShp9ccTyTq3CDHEwk3OJnzTJtuQxcpOw4B2pbsEZiJr7ubdaZeEJeJc8MakvMBQ0uLJuCDteyoVy8V0_9Ca4pwNoYfpMf45j2VPAb9sThBKg0AGBnw6LgXBlnjyrq1R2dqnQDp9kuZapIobqo_Z-QB-Tl7Ps2N6fq6B14HeS-uAfdjRIcB_D4y4iZNleX7inJ1HhNAsVX3u7QkIJetIvaTdsqYT_Rwhg8cU43AMPFRij4yqPghUV4xTaqAVUGAAkplCa7WGuR25f27nbTIL-KxGj3PHKbC2N4domPVwfOKwt2tN81-dWEQxRGpfTMhBDRSnn2SFcmFt5dVefSaJ9xL13_98eC_SpkolDXQiBEybrl-s8AfsLzKTXjYDU1tf7nQOqt1GDapSLtI6f_Vy0]--></g></svg>