<svg xmlns="http://www.w3.org/2000/svg" xmlns:xlink="http://www.w3.org/1999/xlink" contentStyleType="text/css" data-diagram-type="SEQUENCE" height="1550px" preserveAspectRatio="none" style="width:2029px;height:1550px;background:#FFFFFF;" version="1.1" viewBox="0 0 2029 1550" width="2029px" zoomAndPan="magnify"><title>appWorkflow-sequence</title><defs/><g><text fill="#000000" font-family="Monospace" font-size="14" font-weight="bold" lengthAdjust="spacing" textLength="185.0898" x="918.1865" y="27.9951">appWorkflow-sequence</text><rect fill="none" height="500.5391" style="stroke:#000000;stroke-width:1.5;" width="2002.4629" x="10" y="339.5234"/><rect fill="none" height="206.7344" style="stroke:#000000;stroke-width:1.5;" width="1982.4629" x="20" y="626.3281"/><g><title>Client</title><rect fill="#000000" fill-opacity="0.00000" height="1351.3906" width="8" x="49.2651" y="118.5938"/><line style="stroke:#181818;stroke-width:0.5;stroke-dasharray:5,5;" x1="53" x2="53" y1="118.5938" y2="1469.9844"/></g><g><title>GraphQL BFF</title><rect fill="#000000" fill-opacity="0.00000" height="1351.3906" width="8" x="483.5967" y="118.5938"/><line style="stroke:#181818;stroke-width:0.5;stroke-dasharray:5,5;" x1="486.6353" x2="486.6353" y1="118.5938" y2="1469.9844"/></g><g><title>Loan Orchestrator .REST.</title><rect fill="#000000" fill-opacity="0.00000" height="1351.3906" width="8" x="892.1885" y="118.5938"/><line style="stroke:#181818;stroke-width:0.5;stroke-dasharray:5,5;" x1="895.918" x2="895.918" y1="118.5938" y2="1469.9844"/></g><g><title>Risk Scoring .gRPC.</title><rect fill="#000000" fill-opacity="0.00000" height="1351.3906" width="8" x="1171.9546" y="118.5938"/><line style="stroke:#181818;stroke-width:0.5;stroke-dasharray:5,5;" x1="1175.8398" x2="1175.8398" y1="118.5938" y2="1469.9844"/></g><g><title>Provider Funding .REST.</title><rect fill="#000000" fill-opacity="0.00000" height="1351.3906" width="8" x="1350.252" y="118.5938"/><line style="stroke:#181818;stroke-width:0.5;stroke-dasharray:5,5;" x1="1354.0693" x2="1354.0693" y1="118.5938" y2="1469.9844"/></g><g><title>Bank Check Validation .REST.</title><rect fill="#000000" fill-opacity="0.00000" height="1351.3906" width="8" x="1563.8022" y="118.5938"/><line style="stroke:#181818;stroke-width:0.5;stroke-dasharray:5,5;" x1="1567.4346" x2="1567.4346" y1="118.5938" y2="1469.9844"/></g><g><title>PostgreSQL</title><rect fill="#000000" fill-opacity="0.00000" height="1351.3906" width="8" x="1945.0864" y="118.5938"/><line style="stroke:#181818;stroke-width:0.5;stroke-dasharray:5,5;" x1="1948.71" x2="1948.71" y1="118.5938" y2="1469.9844"/></g><g class="participant participant-head" data-participant="Client"><text fill="#000000" font-family="Monospace" font-size="14" lengthAdjust="spacing" textLength="40.5303" x="30" y="115.292">Client</text><ellipse cx="53.2651" cy="50.7969" fill="#E2E2F0" rx="8" ry="8" style="stroke:#181818;stroke-width:0.5;"/><path d="M53.2651,58.7969 L53.2651,85.7969 M40.2651,66.7969 L66.2651,66.7969 M53.2651,85.7969 L40.2651,100.7969 M53.2651,85.7969 L66.2651,100.7969" fill="none" style="stroke:#181818;stroke-width:0.5;"/></g><g class="participant participant-tail" data-participant="Client"><text fill="#000000" font-family="Monospace" font-size="14" lengthAdjust="spacing" textLength="40.5303" x="30" y="1481.9795">Client</text><ellipse cx="53.2651" cy="1493.7813" fill="#E2E2F0" rx="8" ry="8" style="stroke:#181818;stroke-width:0.5;"/><path d="M53.2651,1501.7813 L53.2651,1528.7813 M40.2651,1509.7813 L66.2651,1509.7813 M53.2651,1528.7813 L40.2651,1543.7813 M53.2651,1528.7813 L66.2651,1543.7813" fill="none" style="stroke:#181818;stroke-width:0.5;"/></g><g class="participant participant-head" data-participant="BFF"><rect fill="#E2E2F0" height="30.2969" rx="2.5" ry="2.5" style="stroke:#181818;stroke-width:0.5;" width="105.9229" x="434.6353" y="87.2969"/><text fill="#000000" font-family="Monospace" font-size="14" lengthAdjust="spacing" textLength="91.9229" x="441.6353" y="107.292">GraphQL&#160;BFF</text></g><g class="participant participant-tail" data-participant="BFF"><rect fill="#E2E2F0" height="30.2969" rx="2.5" ry="2.5" style="stroke:#181818;stroke-width:0.5;" width="105.9229" x="434.6353" y="1468.9844"/><text fill="#000000" font-family="Monospace" font-size="14" lengthAdjust="spacing" textLength="91.9229" x="441.6353" y="1488.9795">GraphQL&#160;BFF</text></g><g class="participant participant-head" data-participant="ORCH"><rect fill="#E2E2F0" height="30.2969" rx="2.5" ry="2.5" style="stroke:#181818;stroke-width:0.5;" width="192.541" x="799.918" y="87.2969"/><text fill="#000000" font-family="Monospace" font-size="14" lengthAdjust="spacing" textLength="178.541" x="806.918" y="107.292">Loan&#160;Orchestrator&#160;(REST)</text></g><g class="participant participant-tail" data-participant="ORCH"><rect fill="#E2E2F0" height="30.2969" rx="2.5" ry="2.5" style="stroke:#181818;stroke-width:0.5;" width="192.541" x="799.918" y="1468.9844"/><text fill="#000000" font-family="Monospace" font-size="14" lengthAdjust="spacing" textLength="178.541" x="806.918" y="1488.9795">Loan&#160;Orchestrator&#160;(REST)</text></g><g class="participant participant-head" data-participant="RISK"><rect fill="#E2E2F0" height="30.2969" rx="2.5" ry="2.5" style="stroke:#181818;stroke-width:0.5;" width="152.2295" x="1099.8398" y="87.2969"/><text fill="#000000" font-family="Monospace" font-size="14" lengthAdjust="spacing" textLength="138.2295" x="1106.8398" y="107.292">Risk&#160;Scoring&#160;(gRPC)</text></g><g class="participant participant-tail" data-participant="RISK"><rect fill="#E2E2F0" height="30.2969" rx="2.5" ry="2.5" style="stroke:#181818;stroke-width:0.5;" width="152.2295" x="1099.8398" y="1468.9844"/><text fill="#000000" font-family="Monospace" font-size="14" lengthAdjust="spacing" textLength="138.2295" x="1106.8398" y="1488.9795">Risk&#160;Scoring&#160;(gRPC)</text></g><g class="participant participant-head" data-participant="PROV"><rect fill="#E2E2F0" height="30.2969" rx="2.5" ry="2.5" style="stroke:#181818;stroke-width:0.5;" width="184.3652" x="1262.0693" y="87.2969"/><text fill="#000000" font-family="Monospace" font-size="14" lengthAdjust="spacing" textLength="170.3652" x="1269.0693" y="107.292">Provider&#160;Funding&#160;(REST)</text></g><g class="participant participant-tail" data-participant="PROV"><rect fill="#E2E2F0" height="30.2969" rx="2.5" ry="2.5" style="stroke:#181818;stroke-width:0.5;" width="184.3652" x="1262.0693" y="1468.9844"/><text fill="#000000" font-family="Monospace" font-size="14" lengthAdjust="spacing" textLength="170.3652" x="1269.0693" y="1488.9795">Provider&#160;Funding&#160;(REST)</text></g><g class="participant participant-head" data-participant="CHECK"><rect fill="#E2E2F0" height="30.2969" rx="2.5" ry="2.5" style="stroke:#181818;stroke-width:0.5;" width="222.7354" x="1456.4346" y="87.2969"/><text fill="#000000" font-family="Monospace" font-size="14" lengthAdjust="spacing" textLength="208.7354" x="1463.4346" y="107.292">Bank&#160;Check&#160;Validation&#160;(REST)</text></g><g class="participant participant-tail" data-participant="CHECK"><rect fill="#E2E2F0" height="30.2969" rx="2.5" ry="2.5" style="stroke:#181818;stroke-width:0.5;" width="222.7354" x="1456.4346" y="1468.9844"/><text fill="#000000" font-family="Monospace" font-size="14" lengthAdjust="spacing" textLength="208.7354" x="1463.4346" y="1488.9795">Bank&#160;Check&#160;Validation&#160;(REST)</text></g><g class="participant participant-head" data-participant="DB"><text fill="#000000" font-family="Monospace" font-size="14" lengthAdjust="spacing" textLength="80.7529" x="1905.71" y="115.292">PostgreSQL</text><path d="M1931.0864,66.2969 C1931.0864,56.2969 1949.0864,56.2969 1949.0864,56.2969 C1949.0864,56.2969 1967.0864,56.2969 1967.0864,66.2969 L1967.0864,92.2969 C1967.0864,102.2969 1949.0864,102.2969 1949.0864,102.2969 C1949.0864,102.2969 1931.0864,102.2969 1931.0864,92.2969 L1931.0864,66.2969" fill="#E2E2F0" style="stroke:#181818;stroke-width:0.5;"/><path d="M1931.0864,66.2969 C1931.0864,76.2969 1949.0864,76.2969 1949.0864,76.2969 C1949.0864,76.2969 1967.0864,76.2969 1967.0864,66.2969" fill="none" style="stroke:#181818;stroke-width:0.5;"/></g><g class="participant participant-tail" data-participant="DB"><text fill="#000000" font-family="Monospace" font-size="14" lengthAdjust="spacing" textLength="80.7529" x="1905.71" y="1481.9795">PostgreSQL</text><path d="M1931.0864,1495.2813 C1931.0864,1485.2813 1949.0864,1485.2813 1949.0864,1485.2813 C1949.0864,1485.2813 1967.0864,1485.2813 1967.0864,1495.2813 L1967.0864,1521.2813 C1967.0864,1531.2813 1949.0864,1531.2813 1949.0864,1531.2813 C1949.0864,1531.2813 1931.0864,1531.2813 1931.0864,1521.2813 L1931.0864,1495.2813" fill="#E2E2F0" style="stroke:#181818;stroke-width:0.5;"/><path d="M1931.0864,1495.2813 C1931.0864,1505.2813 1949.0864,1505.2813 1949.0864,1505.2813 C1949.0864,1505.2813 1967.0864,1505.2813 1967.0864,1495.2813" fill="none" style="stroke:#181818;stroke-width:0.5;"/></g><rect fill="#EEEEEE" height="3" style="stroke:#EEEEEE;stroke-width:1;" width="2022.4629" x="0" y="149.1602"/><line style="stroke:#000000;stroke-width:1;" x1="0" x2="2022.4629" y1="149.1602" y2="149.1602"/><line style="stroke:#000000;stroke-width:1;" x1="0" x2="2022.4629" y1="152.1602" y2="152.1602"/><rect fill="#EEEEEE" height="23.1328" style="stroke:#000000;stroke-width:2;" width="114.8516" x="953.8057" y="138.5938"/><text fill="#000000" font-family="Monospace" font-size="13" font-weight="bold" lengthAdjust="spacing" textLength="96.3257" x="959.8057" y="154.6606">Loan&#160;request</text><g class="message" data-participant-1="Client" data-participant-2="BFF"><polygon fill="#181818" points="475.5967,188.8594,485.5967,192.8594,475.5967,196.8594,479.5967,192.8594" style="stroke:#181818;stroke-width:1;"/><line style="stroke:#181818;stroke-width:1;" x1="53.2651" x2="481.5967" y1="192.8594" y2="192.8594"/><text fill="#000000" font-family="Monospace" font-size="13" lengthAdjust="spacing" textLength="410.3315" x="60.2651" y="187.7935">mutation&#160;requestLoan(input:{account_number,&#160;loan_amount})</text></g><g class="message" data-participant-1="BFF" data-participant-2="ORCH"><polygon fill="#181818" points="884.1885,217.9922,894.1885,221.9922,884.1885,225.9922,888.1885,221.9922" style="stroke:#181818;stroke-width:1;"/><line style="stroke:#181818;stroke-width:1;" x1="487.5967" x2="890.1885" y1="221.9922" y2="221.9922"/><text fill="#000000" font-family="Monospace" font-size="13" lengthAdjust="spacing" textLength="353.7993" x="494.5967" y="216.9263">POST&#160;/loans/request&#160;{account_number,&#160;loan_amount}</text></g><g class="message" data-participant-1="ORCH" data-participant-2="DB"><polygon fill="#181818" points="1937.0864,262.2578,1947.0864,266.2578,1937.0864,270.2578,1941.0864,266.2578" style="stroke:#181818;stroke-width:1;"/><line style="stroke:#181818;stroke-width:1;" x1="896.1885" x2="1943.0864" y1="266.2578" y2="266.2578"/><text fill="#000000" font-family="Monospace" font-size="13" lengthAdjust="spacing" textLength="284.6606" x="903.1885" y="246.0591">INSERT&#160;loan_application(status='PENDING')</text><text fill="#000000" font-family="Monospace" font-size="13" lengthAdjust="spacing" textLength="235.7012" x="903.1885" y="261.1919">INSERT/UPDATE&#160;loan_monitoring(...)</text></g><g class="message" data-participant-1="ORCH" data-participant-2="RISK"><polygon fill="#181818" points="1163.9546,291.3906,1173.9546,295.3906,1163.9546,299.3906,1167.9546,295.3906" style="stroke:#181818;stroke-width:1;"/><line style="stroke:#181818;stroke-width:1;" x1="896.1885" x2="1169.9546" y1="295.3906" y2="295.3906"/><text fill="#000000" font-family="Monospace" font-size="13" lengthAdjust="spacing" textLength="255.7661" x="903.1885" y="290.3247">AnalyzeRisk(account_number,&#160;amount)</text></g><g class="message" data-participant-1="RISK" data-participant-2="ORCH"><polygon fill="#181818" points="907.1885,320.5234,897.1885,324.5234,907.1885,328.5234,903.1885,324.5234" style="stroke:#181818;stroke-width:1;"/><line style="stroke:#181818;stroke-width:1;stroke-dasharray:2,2;" x1="901.1885" x2="1174.9546" y1="324.5234" y2="324.5234"/><text fill="#000000" font-family="Monospace" font-size="13" lengthAdjust="spacing" textLength="136.1953" x="913.1885" y="319.4575">{riskLevel,&#160;decision}</text></g><path d="M10,339.5234 L74.4429,339.5234 L74.4429,346.6563 L64.4429,356.6563 L10,356.6563 L10,339.5234" fill="#EEEEEE" style="stroke:#000000;stroke-width:1.5;"/><rect fill="none" height="500.5391" style="stroke:#000000;stroke-width:1.5;" width="2002.4629" x="10" y="339.5234"/><text fill="#000000" font-family="Monospace" font-size="13" font-weight="bold" lengthAdjust="spacing" textLength="19.4429" x="25" y="352.5903">alt</text><text fill="#000000" font-family="Monospace" font-size="11" font-weight="bold" lengthAdjust="spacing" textLength="130.6465" x="89.4429" y="351.7339">[decision&#160;==&#160;REJECT]</text><g class="message" data-participant-1="ORCH" data-participant-2="DB"><polygon fill="#181818" points="1937.0864,373.7891,1947.0864,377.7891,1937.0864,381.7891,1941.0864,377.7891" style="stroke:#181818;stroke-width:1;"/><line style="stroke:#181818;stroke-width:1;" x1="896.1885" x2="1943.0864" y1="377.7891" y2="377.7891"/><text fill="#000000" font-family="Monospace" font-size="13" lengthAdjust="spacing" textLength="317.7192" x="903.1885" y="372.7231">UPDATE&#160;loan_application&#160;SET&#160;status='REJECTED'</text></g><g class="message" data-participant-1="ORCH" data-participant-2="BFF"><polygon fill="#181818" points="498.5967,402.9219,488.5967,406.9219,498.5967,410.9219,494.5967,406.9219" style="stroke:#181818;stroke-width:1;"/><line style="stroke:#181818;stroke-width:1;stroke-dasharray:2,2;" x1="492.5967" x2="895.1885" y1="406.9219" y2="406.9219"/><text fill="#000000" font-family="Monospace" font-size="13" lengthAdjust="spacing" textLength="234.3618" x="504.5967" y="401.856">{success:false,&#160;message,&#160;loan{...}}</text></g><g class="message" data-participant-1="BFF" data-participant-2="Client"><polygon fill="#181818" points="64.2651,432.0547,54.2651,436.0547,64.2651,440.0547,60.2651,436.0547" style="stroke:#181818;stroke-width:1;"/><line style="stroke:#181818;stroke-width:1;stroke-dasharray:2,2;" x1="58.2651" x2="486.5967" y1="436.0547" y2="436.0547"/><text fill="#000000" font-family="Monospace" font-size="13" lengthAdjust="spacing" textLength="113.1787" x="70.2651" y="430.9888">GraphQL&#160;payload</text></g><line style="stroke:#000000;stroke-width:1;stroke-dasharray:2,2;" x1="10" x2="2012.4629" y1="445.0547" y2="445.0547"/><text fill="#000000" font-family="Monospace" font-size="11" font-weight="bold" lengthAdjust="spacing" textLength="135.7168" x="15" y="455.2651">[decision&#160;==&#160;REVIEW]</text><g class="message" data-participant-1="ORCH" data-participant-2="DB"><polygon fill="#181818" points="1937.0864,475.9922,1947.0864,479.9922,1937.0864,483.9922,1941.0864,479.9922" style="stroke:#181818;stroke-width:1;"/><line style="stroke:#181818;stroke-width:1;" x1="896.1885" x2="1943.0864" y1="479.9922" y2="479.9922"/><text fill="#000000" font-family="Monospace" font-size="13" lengthAdjust="spacing" textLength="304.2241" x="903.1885" y="474.9263">UPDATE&#160;loan_application&#160;SET&#160;status='REVIEW'</text></g><g class="message" data-participant-1="ORCH" data-participant-2="BFF"><polygon fill="#181818" points="498.5967,505.125,488.5967,509.125,498.5967,513.125,494.5967,509.125" style="stroke:#181818;stroke-width:1;"/><line style="stroke:#181818;stroke-width:1;stroke-dasharray:2,2;" x1="492.5967" x2="895.1885" y1="509.125" y2="509.125"/><text fill="#000000" font-family="Monospace" font-size="13" lengthAdjust="spacing" textLength="234.3618" x="504.5967" y="504.0591">{success:false,&#160;message,&#160;loan{...}}</text></g><g class="message" data-participant-1="BFF" data-participant-2="Client"><polygon fill="#181818" points="64.2651,534.2578,54.2651,538.2578,64.2651,542.2578,60.2651,538.2578" style="stroke:#181818;stroke-width:1;"/><line style="stroke:#181818;stroke-width:1;stroke-dasharray:2,2;" x1="58.2651" x2="486.5967" y1="538.2578" y2="538.2578"/><text fill="#000000" font-family="Monospace" font-size="13" lengthAdjust="spacing" textLength="113.1787" x="70.2651" y="533.1919">GraphQL&#160;payload</text></g><line style="stroke:#000000;stroke-width:1;stroke-dasharray:2,2;" x1="10" x2="2012.4629" y1="547.2578" y2="547.2578"/><text fill="#000000" font-family="Monospace" font-size="11" font-weight="bold" lengthAdjust="spacing" textLength="145.9648" x="15" y="557.4683">[decision&#160;==&#160;APPROVE]</text><g class="message" data-participant-1="ORCH" data-participant-2="PROV"><polygon fill="#181818" points="1342.252,578.1953,1352.252,582.1953,1342.252,586.1953,1346.252,582.1953" style="stroke:#181818;stroke-width:1;"/><line style="stroke:#181818;stroke-width:1;" x1="896.1885" x2="1348.252" y1="582.1953" y2="582.1953"/><text fill="#000000" font-family="Monospace" font-size="13" lengthAdjust="spacing" textLength="260.2095" x="903.1885" y="577.1294">POST&#160;/fund&#160;{account_number,&#160;amount}</text></g><g class="message" data-participant-1="PROV" data-participant-2="ORCH"><polygon fill="#181818" points="907.1885,607.3281,897.1885,611.3281,907.1885,615.3281,903.1885,611.3281" style="stroke:#181818;stroke-width:1;"/><line style="stroke:#181818;stroke-width:1;stroke-dasharray:2,2;" x1="901.1885" x2="1353.252" y1="611.3281" y2="611.3281"/><text fill="#000000" font-family="Monospace" font-size="13" lengthAdjust="spacing" textLength="218.9497" x="913.1885" y="606.2622">{success,&#160;transfer_id?,&#160;message}</text></g><path d="M20,626.3281 L84.4429,626.3281 L84.4429,633.4609 L74.4429,643.4609 L20,643.4609 L20,626.3281" fill="#EEEEEE" style="stroke:#000000;stroke-width:1.5;"/><rect fill="none" height="206.7344" style="stroke:#000000;stroke-width:1.5;" width="1982.4629" x="20" y="626.3281"/><text fill="#000000" font-family="Monospace" font-size="13" font-weight="bold" lengthAdjust="spacing" textLength="19.4429" x="35" y="639.395">alt</text><text fill="#000000" font-family="Monospace" font-size="11" font-weight="bold" lengthAdjust="spacing" textLength="76.5542" x="99.4429" y="638.5386">[funding&#160;ok]</text><g class="message" data-participant-1="ORCH" data-participant-2="DB"><polygon fill="#181818" points="1937.0864,660.5938,1947.0864,664.5938,1937.0864,668.5938,1941.0864,664.5938" style="stroke:#181818;stroke-width:1;"/><line style="stroke:#181818;stroke-width:1;" x1="896.1885" x2="1943.0864" y1="664.5938" y2="664.5938"/><text fill="#000000" font-family="Monospace" font-size="13" lengthAdjust="spacing" textLength="324.1367" x="903.1885" y="659.5278">UPDATE&#160;loan_application&#160;SET&#160;status='APPROVED'</text></g><g class="message" data-participant-1="ORCH" data-participant-2="BFF"><polygon fill="#181818" points="498.5967,689.7266,488.5967,693.7266,498.5967,697.7266,494.5967,693.7266" style="stroke:#181818;stroke-width:1;"/><line style="stroke:#181818;stroke-width:1;stroke-dasharray:2,2;" x1="492.5967" x2="895.1885" y1="693.7266" y2="693.7266"/><text fill="#000000" font-family="Monospace" font-size="13" lengthAdjust="spacing" textLength="230.1152" x="504.5967" y="688.6606">{success:true,&#160;message,&#160;loan{...}}</text></g><g class="message" data-participant-1="BFF" data-participant-2="Client"><polygon fill="#181818" points="64.2651,718.8594,54.2651,722.8594,64.2651,726.8594,60.2651,722.8594" style="stroke:#181818;stroke-width:1;"/><line style="stroke:#181818;stroke-width:1;stroke-dasharray:2,2;" x1="58.2651" x2="486.5967" y1="722.8594" y2="722.8594"/><text fill="#000000" font-family="Monospace" font-size="13" lengthAdjust="spacing" textLength="113.1787" x="70.2651" y="717.7935">GraphQL&#160;payload</text></g><line style="stroke:#000000;stroke-width:1;stroke-dasharray:2,2;" x1="20" x2="2002.4629" y1="731.8594" y2="731.8594"/><text fill="#000000" font-family="Monospace" font-size="11" font-weight="bold" lengthAdjust="spacing" textLength="96.7656" x="25" y="742.0698">[funding&#160;failed]</text><g class="message" data-participant-1="ORCH" data-participant-2="DB"><polygon fill="#181818" points="1937.0864,762.7969,1947.0864,766.7969,1937.0864,770.7969,1941.0864,766.7969" style="stroke:#181818;stroke-width:1;"/><line style="stroke:#181818;stroke-width:1;" x1="896.1885" x2="1943.0864" y1="766.7969" y2="766.7969"/><text fill="#000000" font-family="Monospace" font-size="13" lengthAdjust="spacing" textLength="365.7139" x="903.1885" y="761.731">UPDATE&#160;loan_application&#160;SET&#160;status='FAILED_FUNDING'</text></g><g class="message" data-participant-1="ORCH" data-participant-2="BFF"><polygon fill="#181818" points="498.5967,791.9297,488.5967,795.9297,498.5967,799.9297,494.5967,795.9297" style="stroke:#181818;stroke-width:1;"/><line style="stroke:#181818;stroke-width:1;stroke-dasharray:2,2;" x1="492.5967" x2="895.1885" y1="795.9297" y2="795.9297"/><text fill="#000000" font-family="Monospace" font-size="13" lengthAdjust="spacing" textLength="234.3618" x="504.5967" y="790.8638">{success:false,&#160;message,&#160;loan{...}}</text></g><g class="message" data-participant-1="BFF" data-participant-2="Client"><polygon fill="#181818" points="64.2651,821.0625,54.2651,825.0625,64.2651,829.0625,60.2651,825.0625" style="stroke:#181818;stroke-width:1;"/><line style="stroke:#181818;stroke-width:1;stroke-dasharray:2,2;" x1="58.2651" x2="486.5967" y1="825.0625" y2="825.0625"/><text fill="#000000" font-family="Monospace" font-size="13" lengthAdjust="spacing" textLength="113.1787" x="70.2651" y="819.9966">GraphQL&#160;payload</text></g><rect fill="#EEEEEE" height="3" style="stroke:#EEEEEE;stroke-width:1;" width="2022.4629" x="0" y="867.6289"/><line style="stroke:#000000;stroke-width:1;" x1="0" x2="2022.4629" y1="867.6289" y2="867.6289"/><line style="stroke:#000000;stroke-width:1;" x1="0" x2="2022.4629" y1="870.6289" y2="870.6289"/><rect fill="#EEEEEE" height="23.1328" style="stroke:#000000;stroke-width:2;" width="121.7832" x="950.3398" y="857.0625"/><text fill="#000000" font-family="Monospace" font-size="13" font-weight="bold" lengthAdjust="spacing" textLength="103.2573" x="956.3398" y="873.1294">Check&#160;deposit</text><g class="message" data-participant-1="Client" data-participant-2="BFF"><polygon fill="#181818" points="475.5967,937.5938,485.5967,941.5938,475.5967,945.5938,479.5967,941.5938" style="stroke:#181818;stroke-width:1;"/><line style="stroke:#181818;stroke-width:1;" x1="53.2651" x2="481.5967" y1="941.5938" y2="941.5938"/><text fill="#000000" font-family="Monospace" font-size="13" lengthAdjust="spacing" textLength="315.25" x="60.2651" y="906.2622">mutation&#160;depositCheck(input:{account_number,</text><text fill="#000000" font-family="Monospace" font-size="13" lengthAdjust="spacing" textLength="202.6045" x="60.2651" y="921.395">check_number,&#160;check_bank_id,</text><text fill="#000000" font-family="Monospace" font-size="13" lengthAdjust="spacing" textLength="269.915" x="60.2651" y="936.5278">check_account_number,&#160;check_amount})</text></g><g class="message" data-participant-1="BFF" data-participant-2="CHECK"><polygon fill="#181818" points="1555.8022,966.7266,1565.8022,970.7266,1555.8022,974.7266,1559.8022,970.7266" style="stroke:#181818;stroke-width:1;"/><line style="stroke:#181818;stroke-width:1;" x1="487.5967" x2="1561.8022" y1="970.7266" y2="970.7266"/><text fill="#000000" font-family="Monospace" font-size="13" lengthAdjust="spacing" textLength="181.2637" x="494.5967" y="965.6606">POST&#160;/checks/deposit&#160;{&#160;...&#160;}</text></g><g class="message" data-participant-1="CHECK" data-participant-2="DB"><polygon fill="#181818" points="1937.0864,1010.9922,1947.0864,1014.9922,1937.0864,1018.9922,1941.0864,1014.9922" style="stroke:#181818;stroke-width:1;"/><line style="stroke:#181818;stroke-width:1;" x1="1567.8022" x2="1943.0864" y1="1014.9922" y2="1014.9922"/><text fill="#000000" font-family="Monospace" font-size="13" lengthAdjust="spacing" textLength="141.229" x="1574.8022" y="994.7935">SELECT&#160;bank/account</text><text fill="#000000" font-family="Monospace" font-size="13" lengthAdjust="spacing" textLength="267.6299" x="1574.8022" y="1009.9263">+&#160;validations&#160;(regex,&#160;existence,&#160;balance)</text></g><g class="message" data-participant-1="CHECK" data-participant-2="DB"><polygon fill="#181818" points="1937.0864,1040.125,1947.0864,1044.125,1937.0864,1048.125,1941.0864,1044.125" style="stroke:#181818;stroke-width:1;"/><line style="stroke:#181818;stroke-width:1;" x1="1567.8022" x2="1943.0864" y1="1044.125" y2="1044.125"/><text fill="#000000" font-family="Monospace" font-size="13" lengthAdjust="spacing" textLength="234.5586" x="1574.8022" y="1039.0591">INSERT/UPDATE&#160;bank_check(status)</text></g><g class="message" data-participant-1="CHECK" data-participant-2="BFF"><polygon fill="#181818" points="498.5967,1069.2578,488.5967,1073.2578,498.5967,1077.2578,494.5967,1073.2578" style="stroke:#181818;stroke-width:1;"/><line style="stroke:#181818;stroke-width:1;stroke-dasharray:2,2;" x1="492.5967" x2="1566.8022" y1="1073.2578" y2="1073.2578"/><text fill="#000000" font-family="Monospace" font-size="13" lengthAdjust="spacing" textLength="205.6704" x="504.5967" y="1068.1919">{success,&#160;message,&#160;check_id?}</text></g><g class="message" data-participant-1="BFF" data-participant-2="Client"><polygon fill="#181818" points="64.2651,1098.3906,54.2651,1102.3906,64.2651,1106.3906,60.2651,1102.3906" style="stroke:#181818;stroke-width:1;"/><line style="stroke:#181818;stroke-width:1;stroke-dasharray:2,2;" x1="58.2651" x2="486.5967" y1="1102.3906" y2="1102.3906"/><text fill="#000000" font-family="Monospace" font-size="13" lengthAdjust="spacing" textLength="113.1787" x="70.2651" y="1097.3247">GraphQL&#160;payload</text></g><rect fill="#EEEEEE" height="3" style="stroke:#EEEEEE;stroke-width:1;" width="2022.4629" x="0" y="1130.957"/><line style="stroke:#000000;stroke-width:1;" x1="0" x2="2022.4629" y1="1130.957" y2="1130.957"/><line style="stroke:#000000;stroke-width:1;" x1="0" x2="2022.4629" y1="1133.957" y2="1133.957"/><rect fill="#EEEEEE" height="23.1328" style="stroke:#000000;stroke-width:2;" width="75.0708" x="973.696" y="1120.3906"/><text fill="#000000" font-family="Monospace" font-size="13" font-weight="bold" lengthAdjust="spacing" textLength="56.5449" x="979.696" y="1136.4575">Queries</text><g class="message" data-participant-1="Client" data-participant-2="BFF"><polygon fill="#181818" points="475.5967,1170.6563,485.5967,1174.6563,475.5967,1178.6563,479.5967,1174.6563" style="stroke:#181818;stroke-width:1;"/><line style="stroke:#181818;stroke-width:1;" x1="53.2651" x2="481.5967" y1="1174.6563" y2="1174.6563"/><text fill="#000000" font-family="Monospace" font-size="13" lengthAdjust="spacing" textLength="283.918" x="60.2651" y="1169.5903">query&#160;getCheckInformation(check_number)</text></g><g class="message" data-participant-1="BFF" data-participant-2="CHECK"><polygon fill="#181818" points="1555.8022,1199.7891,1565.8022,1203.7891,1555.8022,1207.7891,1559.8022,1203.7891" style="stroke:#181818;stroke-width:1;"/><line style="stroke:#181818;stroke-width:1;" x1="487.5967" x2="1561.8022" y1="1203.7891" y2="1203.7891"/><text fill="#000000" font-family="Monospace" font-size="13" lengthAdjust="spacing" textLength="195.7935" x="494.5967" y="1198.7231">GET&#160;/checks/{check_number}</text></g><g class="message" data-participant-1="CHECK" data-participant-2="DB"><polygon fill="#181818" points="1937.0864,1228.9219,1947.0864,1232.9219,1937.0864,1236.9219,1941.0864,1232.9219" style="stroke:#181818;stroke-width:1;"/><line style="stroke:#181818;stroke-width:1;" x1="1567.8022" x2="1943.0864" y1="1232.9219" y2="1232.9219"/><text fill="#000000" font-family="Monospace" font-size="13" lengthAdjust="spacing" textLength="357.2842" x="1574.8022" y="1227.856">SELECT&#160;*&#160;FROM&#160;bank_check&#160;WHERE&#160;check_number=...</text></g><g class="message" data-participant-1="CHECK" data-participant-2="BFF"><polygon fill="#181818" points="498.5967,1273.1875,488.5967,1277.1875,498.5967,1281.1875,494.5967,1277.1875" style="stroke:#181818;stroke-width:1;"/><line style="stroke:#181818;stroke-width:1;stroke-dasharray:2,2;" x1="492.5967" x2="1566.8022" y1="1277.1875" y2="1277.1875"/><text fill="#000000" font-family="Monospace" font-size="13" lengthAdjust="spacing" textLength="186.4434" x="504.5967" y="1256.9888">{id,&#160;check_number,&#160;bank_id,</text><text fill="#000000" font-family="Monospace" font-size="13" lengthAdjust="spacing" textLength="268.4932" x="504.5967" y="1272.1216">account_number,&#160;check_amount,&#160;status}</text></g><g class="message" data-participant-1="BFF" data-participant-2="Client"><polygon fill="#181818" points="64.2651,1302.3203,54.2651,1306.3203,64.2651,1310.3203,60.2651,1306.3203" style="stroke:#181818;stroke-width:1;"/><line style="stroke:#181818;stroke-width:1;stroke-dasharray:2,2;" x1="58.2651" x2="486.5967" y1="1306.3203" y2="1306.3203"/><text fill="#000000" font-family="Monospace" font-size="13" lengthAdjust="spacing" textLength="90.7651" x="70.2651" y="1301.2544">GraphQL&#160;data</text></g><g class="message" data-participant-1="Client" data-participant-2="BFF"><polygon fill="#181818" points="475.5967,1331.4531,485.5967,1335.4531,475.5967,1339.4531,479.5967,1335.4531" style="stroke:#181818;stroke-width:1;"/><line style="stroke:#181818;stroke-width:1;" x1="53.2651" x2="481.5967" y1="1335.4531" y2="1335.4531"/><text fill="#000000" font-family="Monospace" font-size="13" lengthAdjust="spacing" textLength="226.167" x="60.2651" y="1330.3872">query&#160;getLoanInformation(loan_id)</text></g><g class="message" data-participant-1="BFF" data-participant-2="ORCH"><polygon fill="#181818" points="884.1885,1360.5859,894.1885,1364.5859,884.1885,1368.5859,888.1885,1364.5859" style="stroke:#181818;stroke-width:1;"/><line style="stroke:#181818;stroke-width:1;" x1="487.5967" x2="890.1885" y1="1364.5859" y2="1364.5859"/><text fill="#000000" font-family="Monospace" font-size="13" lengthAdjust="spacing" textLength="136.3413" x="494.5967" y="1359.52">GET&#160;/loans/{loan_id}</text></g><g class="message" data-participant-1="ORCH" data-participant-2="DB"><polygon fill="#181818" points="1937.0864,1389.7188,1947.0864,1393.7188,1937.0864,1397.7188,1941.0864,1393.7188" style="stroke:#181818;stroke-width:1;"/><line style="stroke:#181818;stroke-width:1;" x1="896.1885" x2="1943.0864" y1="1393.7188" y2="1393.7188"/><text fill="#000000" font-family="Monospace" font-size="13" lengthAdjust="spacing" textLength="303.2847" x="903.1885" y="1388.6528">SELECT&#160;*&#160;FROM&#160;loan_application&#160;WHERE&#160;id=...</text></g><g class="message" data-participant-1="ORCH" data-participant-2="BFF"><polygon fill="#181818" points="498.5967,1418.8516,488.5967,1422.8516,498.5967,1426.8516,494.5967,1422.8516" style="stroke:#181818;stroke-width:1;"/><line style="stroke:#181818;stroke-width:1;stroke-dasharray:2,2;" x1="492.5967" x2="895.1885" y1="1422.8516" y2="1422.8516"/><text fill="#000000" font-family="Monospace" font-size="13" lengthAdjust="spacing" textLength="384.5918" x="504.5967" y="1417.7856">LoanDTO&#160;{id,&#160;account_number,&#160;loan_amount,&#160;loan_status}</text></g><g class="message" data-participant-1="BFF" data-participant-2="Client"><polygon fill="#181818" points="64.2651,1447.9844,54.2651,1451.9844,64.2651,1455.9844,60.2651,1451.9844" style="stroke:#181818;stroke-width:1;"/><line style="stroke:#181818;stroke-width:1;stroke-dasharray:2,2;" x1="58.2651" x2="486.5967" y1="1451.9844" y2="1451.9844"/><text fill="#000000" font-family="Monospace" font-size="13" lengthAdjust="spacing" textLength="90.7651" x="70.2651" y="1446.9185">GraphQL&#160;data</text></g><!--SRC=[lLPTRzem57tFhxZQIs6ZPPhsL8bDBOIMbHOQQFjIgN8J0nR1pcod7qFyzrtRIPf0eLqVLWcLsEVUd7lEzJMQwPW2IP8R8UUJM3pkA_exfJoadgVcZ2T4aWMe6Od48-DJc91OqTBEeoJ93Olq3Bvz_rfQZ-Y4fB7k2gulo8B2kU129SIa9Q4M4jenernxYDOiP0dX6ZwTOBBPPH-EkzrFG9JvNmNq1U4maE6CAYs9ILCB_D6uRj63e7rQXGTCpM4K2ccOrwR1iEsGGMzqLaKEfNXW4PNGJNbaqIzvXy7Wkee-9dmExHaDvt1DOXOHpGGlXxHF_VQPX-ladYYAwONIKqb7btsxtJdsl3reRVl3FLkeD4ue3RL5gkqhwZkZMgrg62uvaM7_Xv4I3Y5Fb6CCleQMfVfmIS9Gf5pVyNHnJsK3Ojox8mkpjgfx9XxJ68qnpt0m6aFJ85GpVztE19vd8p53vnZZUnSZFnXdY2I9MMXfrHJIIrLhR-XVT7eN9tlrM-wWpQjXvsZikuY5u4nRKsi71mVr8hMn5PCVSH8__w76_Dew9qUdxbde_aj1IudeFdsWSGDRDsGAsI1f4klY4VM4mF_bjySUGAMQChTIDJ3onv1Nv2BzpbuHN9YoL6aOKgKExTbgm0A_aobr0YwnmjKAWwm169DPUWZvOKd8Cm8ZZsBm6jdhdd_pCR8cyZzIFHgQG-QNk9hdej4cU2Wt-ojlBN3WifiPpGRWbE1gGkKTYtuMT4s8SNQIdNKnnuKFo9InjfvkbqhBTAjIxz0AmAgLSvqG5jFeOtoxHxs-txdhNhd3jPFrJeFVHvkZqVXvOzAvCHhHH2ZsBwEk6hThrcKO6x1bsDtoqEmMhUMUxd7CO-CKk-iDcAskZKWx-ulMjHZLp7ak0JK4d2mEbRityliu7S2yi9czvPP_WOVYSb5GatHAdnf0dvZIvdvk83mc-AM-bgmwCMqHbaKsNGluXkabkrrfU6XMtfjMls7mPKebexO04gatVStXhpYAzunyXYbrLlRuHCY5kpVAxcqOSUA_-B0i8rUlk_0Pki7Wl2GSt9pwWG_bq1RQkAaZzWfK6-cbXNOrJoCxeZl4DhyblEsAc8kyB8YT0onQlxUj5ExQNcQGLVLchcgmCKwS4YoozQ_D3iEXCnuu6NRy6CWUtbVoNm00]--></g></svg>