<svg xmlns="http://www.w3.org/2000/svg" xmlns:xlink="http://www.w3.org/1999/xlink" contentStyleType="text/css" data-diagram-type="CLASS" height="728px" preserveAspectRatio="none" style="width:756px;height:728px;background:#FFFFFF;" version="1.1" viewBox="0 0 756 728" width="756px" zoomAndPan="magnify"><defs/><g><!--class Customer--><g class="entity" data-entity="Customer" data-source-line="9" data-uid="ent0002" id="entity_Customer"><rect fill="#F5F5F5" height="96.8906" rx="2.5" ry="2.5" style="stroke:#2F4F4F;stroke-width:0.5;" width="157.5986" x="167.36" y="15.14"/><ellipse cx="208.2776" cy="31.14" fill="#ADD1B2" rx="11" ry="11" style="stroke:#181818;stroke-width:1;"/><path d="M211.2464,36.7806 Q210.6683,37.0775 210.0276,37.2181 Q209.387,37.3744 208.6839,37.3744 Q206.1839,37.3744 204.8558,35.7337 Q203.5433,34.0775 203.5433,30.9525 Q203.5433,27.8275 204.8558,26.1712 Q206.1839,24.515 208.6839,24.515 Q209.387,24.515 210.0276,24.6712 Q210.6839,24.8275 211.2464,25.1244 L211.2464,27.8431 Q210.6214,27.265 210.0276,26.9994 Q209.4339,26.7181 208.8089,26.7181 Q207.4651,26.7181 206.7776,27.7962 Q206.0901,28.8587 206.0901,30.9525 Q206.0901,33.0462 206.7776,34.1244 Q207.4651,35.1869 208.8089,35.1869 Q209.4339,35.1869 210.0276,34.9212 Q210.6214,34.64 211.2464,34.0619 L211.2464,36.7806 Z " fill="#000000"/><text fill="#000000" font-family="sans-serif" font-size="14" lengthAdjust="spacing" textLength="68.0039" x="228.0371" y="35.9867">Customer</text><line style="stroke:#2F4F4F;stroke-width:0.5;" x1="168.36" x2="323.9586" y1="47.14" y2="47.14"/><text fill="#000000" font-family="sans-serif" font-size="14" lengthAdjust="spacing" textLength="11.7305" x="173.36" y="64.1351">+</text><text fill="#000000" font-family="sans-serif" font-size="14" font-weight="bold" lengthAdjust="spacing" textLength="133.8682" x="185.0905" y="64.1351">id : Integer {PK}</text><text fill="#000000" font-family="sans-serif" font-size="14" lengthAdjust="spacing" textLength="123.6826" x="173.36" y="80.432">full_name : String</text><text fill="#000000" font-family="sans-serif" font-size="14" lengthAdjust="spacing" textLength="94.0078" x="173.36" y="96.7289">email : String</text><line style="stroke:#2F4F4F;stroke-width:0.5;" x1="168.36" x2="323.9586" y1="104.0306" y2="104.0306"/></g><!--class Bank--><g class="entity" data-entity="Bank" data-source-line="15" data-uid="ent0003" id="entity_Bank"><rect fill="#F5F5F5" height="113.1875" rx="2.5" ry="2.5" style="stroke:#2F4F4F;stroke-width:0.5;" width="301.6934" x="360.31" y="7"/><ellipse cx="489.3246" cy="23" fill="#ADD1B2" rx="11" ry="11" style="stroke:#181818;stroke-width:1;"/><path d="M492.2934,28.6406 Q491.7153,28.9375 491.0746,29.0781 Q490.434,29.2344 489.7309,29.2344 Q487.2309,29.2344 485.9028,27.5938 Q484.5903,25.9375 484.5903,22.8125 Q484.5903,19.6875 485.9028,18.0313 Q487.2309,16.375 489.7309,16.375 Q490.434,16.375 491.0746,16.5313 Q491.7309,16.6875 492.2934,16.9844 L492.2934,19.7031 Q491.6684,19.125 491.0746,18.8594 Q490.4809,18.5781 489.8559,18.5781 Q488.5121,18.5781 487.8246,19.6563 Q487.1371,20.7188 487.1371,22.8125 Q487.1371,24.9063 487.8246,25.9844 Q488.5121,27.0469 489.8559,27.0469 Q490.4809,27.0469 491.0746,26.7813 Q491.6684,26.5 492.2934,25.9219 L492.2934,28.6406 Z " fill="#000000"/><text fill="#000000" font-family="sans-serif" font-size="14" lengthAdjust="spacing" textLength="35.1641" x="509.8246" y="27.8467">Bank</text><line style="stroke:#2F4F4F;stroke-width:0.5;" x1="361.31" x2="661.0034" y1="39" y2="39"/><text fill="#000000" font-family="sans-serif" font-size="14" lengthAdjust="spacing" textLength="11.7305" x="366.31" y="55.9951">+</text><text fill="#000000" font-family="sans-serif" font-size="14" font-weight="bold" lengthAdjust="spacing" textLength="133.8682" x="378.0405" y="55.9951">id : Integer {PK}</text><text fill="#000000" font-family="sans-serif" font-size="14" lengthAdjust="spacing" textLength="95.1016" x="366.31" y="72.292">name : String</text><text fill="#000000" font-family="sans-serif" font-size="14" lengthAdjust="spacing" textLength="289.6934" x="366.31" y="88.5889">account_number_validity_pattern : String</text><text fill="#000000" font-family="sans-serif" font-size="14" lengthAdjust="spacing" textLength="213.2676" x="366.31" y="104.8857">check_validity_pattern : String</text><line style="stroke:#2F4F4F;stroke-width:0.5;" x1="361.31" x2="661.0034" y1="112.1875" y2="112.1875"/></g><!--class Account--><g class="entity" data-entity="Account" data-source-line="22" data-uid="ent0004" id="entity_Account"><rect fill="#F5F5F5" height="113.1875" rx="2.5" ry="2.5" style="stroke:#2F4F4F;stroke-width:0.5;" width="263.6924" x="246.31" y="180.18"/><ellipse cx="345.52" cy="196.18" fill="#ADD1B2" rx="11" ry="11" style="stroke:#181818;stroke-width:1;"/><path d="M348.4887,201.8206 Q347.9106,202.1175 347.27,202.2581 Q346.6293,202.4144 345.9262,202.4144 Q343.4262,202.4144 342.0981,200.7738 Q340.7856,199.1175 340.7856,195.9925 Q340.7856,192.8675 342.0981,191.2113 Q343.4262,189.555 345.9262,189.555 Q346.6293,189.555 347.27,189.7113 Q347.9262,189.8675 348.4887,190.1644 L348.4887,192.8831 Q347.8637,192.305 347.27,192.0394 Q346.6762,191.7581 346.0512,191.7581 Q344.7075,191.7581 344.02,192.8363 Q343.3325,193.8988 343.3325,195.9925 Q343.3325,198.0863 344.02,199.1644 Q344.7075,200.2269 346.0512,200.2269 Q346.6762,200.2269 347.27,199.9613 Q347.8637,199.68 348.4887,199.1019 L348.4887,201.8206 Z " fill="#000000"/><text fill="#000000" font-family="sans-serif" font-size="14" lengthAdjust="spacing" textLength="56.7725" x="366.02" y="201.0267">Account</text><line style="stroke:#2F4F4F;stroke-width:0.5;" x1="247.31" x2="509.0024" y1="212.18" y2="212.18"/><text fill="#000000" font-family="sans-serif" font-size="14" lengthAdjust="spacing" textLength="11.7305" x="252.31" y="229.1751">+</text><text fill="#000000" font-family="sans-serif" font-size="14" font-weight="bold" lengthAdjust="spacing" textLength="239.9619" x="264.0405" y="229.1751">account_number : String {PK}</text><text fill="#0000FF" font-family="sans-serif" font-size="14" lengthAdjust="spacing" textLength="189.1777" x="252.31" y="245.472">customer_id : Integer {FK}</text><text fill="#0000FF" font-family="sans-serif" font-size="14" lengthAdjust="spacing" textLength="157.6982" x="252.31" y="261.7689">bank_id : Integer {FK}</text><text fill="#000000" font-family="sans-serif" font-size="14" lengthAdjust="spacing" textLength="103.3115" x="252.31" y="278.0657">balance : Float</text><line style="stroke:#2F4F4F;stroke-width:0.5;" x1="247.31" x2="509.0024" y1="285.3675" y2="285.3675"/></g><!--class BankingTransaction--><g class="entity" data-entity="BankingTransaction" data-source-line="29" data-uid="ent0005" id="entity_BankingTransaction"><rect fill="#F5F5F5" height="129.4844" rx="2.5" ry="2.5" style="stroke:#2F4F4F;stroke-width:0.5;" width="224.3105" x="7" y="353.37"/><ellipse cx="46.0073" cy="369.37" fill="#ADD1B2" rx="11" ry="11" style="stroke:#181818;stroke-width:1;"/><path d="M48.9761,375.0106 Q48.3979,375.3075 47.7573,375.4481 Q47.1167,375.6044 46.4136,375.6044 Q43.9136,375.6044 42.5854,373.9638 Q41.2729,372.3075 41.2729,369.1825 Q41.2729,366.0575 42.5854,364.4013 Q43.9136,362.745 46.4136,362.745 Q47.1167,362.745 47.7573,362.9013 Q48.4136,363.0575 48.9761,363.3544 L48.9761,366.0731 Q48.3511,365.495 47.7573,365.2294 Q47.1636,364.9481 46.5386,364.9481 Q45.1948,364.9481 44.5073,366.0263 Q43.8198,367.0888 43.8198,369.1825 Q43.8198,371.2763 44.5073,372.3544 Q45.1948,373.4169 46.5386,373.4169 Q47.1636,373.4169 47.7573,373.1513 Q48.3511,372.87 48.9761,372.2919 L48.9761,375.0106 Z " fill="#000000"/><text fill="#000000" font-family="sans-serif" font-size="14" lengthAdjust="spacing" textLength="138.9609" x="65.3423" y="374.2167">BankingTransaction</text><line style="stroke:#2F4F4F;stroke-width:0.5;" x1="8" x2="230.3105" y1="385.37" y2="385.37"/><text fill="#000000" font-family="sans-serif" font-size="14" lengthAdjust="spacing" textLength="11.7305" x="13" y="402.3651">+</text><text fill="#000000" font-family="sans-serif" font-size="14" font-weight="bold" lengthAdjust="spacing" textLength="133.8682" x="24.7305" y="402.3651">id : Integer {PK}</text><text fill="#0000FF" font-family="sans-serif" font-size="14" lengthAdjust="spacing" textLength="212.3105" x="13" y="418.662">account_number : String {FK}</text><text fill="#000000" font-family="sans-serif" font-size="14" lengthAdjust="spacing" textLength="172.7578" x="13" y="434.9589">transaction_type : String</text><text fill="#000000" font-family="sans-serif" font-size="14" lengthAdjust="spacing" textLength="102.2109" x="13" y="451.2557">amount : Float</text><text fill="#000000" font-family="sans-serif" font-size="14" lengthAdjust="spacing" textLength="209.8496" x="13" y="467.5526">transaction_date : Timestamp</text><line style="stroke:#2F4F4F;stroke-width:0.5;" x1="8" x2="230.3105" y1="474.8544" y2="474.8544"/></g><!--class LoanApplication--><g class="entity" data-entity="LoanApplication" data-source-line="37" data-uid="ent0006" id="entity_LoanApplication"><rect fill="#F5F5F5" height="113.1875" rx="2.5" ry="2.5" style="stroke:#2F4F4F;stroke-width:0.5;" width="224.3105" x="266" y="361.52"/><ellipse cx="317.8848" cy="377.52" fill="#ADD1B2" rx="11" ry="11" style="stroke:#181818;stroke-width:1;"/><path d="M320.8535,383.1606 Q320.2754,383.4575 319.6348,383.5981 Q318.9941,383.7544 318.291,383.7544 Q315.791,383.7544 314.4629,382.1138 Q313.1504,380.4575 313.1504,377.3325 Q313.1504,374.2075 314.4629,372.5513 Q315.791,370.895 318.291,370.895 Q318.9941,370.895 319.6348,371.0513 Q320.291,371.2075 320.8535,371.5044 L320.8535,374.2231 Q320.2285,373.645 319.6348,373.3794 Q319.041,373.0981 318.416,373.0981 Q317.0723,373.0981 316.3848,374.1763 Q315.6973,375.2388 315.6973,377.3325 Q315.6973,379.4263 316.3848,380.5044 Q317.0723,381.5669 318.416,381.5669 Q319.041,381.5669 319.6348,381.3013 Q320.2285,381.02 320.8535,380.4419 L320.8535,383.1606 Z " fill="#000000"/><text fill="#000000" font-family="sans-serif" font-size="14" lengthAdjust="spacing" textLength="112.041" x="338.3848" y="382.3667">LoanApplication</text><line style="stroke:#2F4F4F;stroke-width:0.5;" x1="267" x2="489.3105" y1="393.52" y2="393.52"/><text fill="#000000" font-family="sans-serif" font-size="14" lengthAdjust="spacing" textLength="11.7305" x="272" y="410.5151">+</text><text fill="#000000" font-family="sans-serif" font-size="14" font-weight="bold" lengthAdjust="spacing" textLength="133.8682" x="283.7305" y="410.5151">id : Integer {PK}</text><text fill="#0000FF" font-family="sans-serif" font-size="14" lengthAdjust="spacing" textLength="212.3105" x="272" y="426.812">account_number : String {FK}</text><text fill="#000000" font-family="sans-serif" font-size="14" lengthAdjust="spacing" textLength="161.6289" x="272" y="443.1089">loan_amount : Decimal</text><text fill="#000000" font-family="sans-serif" font-size="14" lengthAdjust="spacing" textLength="98.417" x="272" y="459.4057">status : String</text><line style="stroke:#2F4F4F;stroke-width:0.5;" x1="267" x2="489.3105" y1="466.7075" y2="466.7075"/></g><!--class BankCheck--><g class="entity" data-entity="BankCheck" data-source-line="44" data-uid="ent0007" id="entity_BankCheck"><rect fill="#F5F5F5" height="129.4844" rx="2.5" ry="2.5" style="stroke:#2F4F4F;stroke-width:0.5;" width="224.3105" x="525" y="353.37"/><ellipse cx="593.79" cy="369.37" fill="#ADD1B2" rx="11" ry="11" style="stroke:#181818;stroke-width:1;"/><path d="M596.7588,375.0106 Q596.1807,375.3075 595.54,375.4481 Q594.8994,375.6044 594.1963,375.6044 Q591.6963,375.6044 590.3682,373.9638 Q589.0557,372.3075 589.0557,369.1825 Q589.0557,366.0575 590.3682,364.4013 Q591.6963,362.745 594.1963,362.745 Q594.8994,362.745 595.54,362.9013 Q596.1963,363.0575 596.7588,363.3544 L596.7588,366.0731 Q596.1338,365.495 595.54,365.2294 Q594.9463,364.9481 594.3213,364.9481 Q592.9775,364.9481 592.29,366.0263 Q591.6025,367.0888 591.6025,369.1825 Q591.6025,371.2763 592.29,372.3544 Q592.9775,373.4169 594.3213,373.4169 Q594.9463,373.4169 595.54,373.1513 Q596.1338,372.87 596.7588,372.2919 L596.7588,375.0106 Z " fill="#000000"/><text fill="#000000" font-family="sans-serif" font-size="14" lengthAdjust="spacing" textLength="78.2305" x="614.29" y="374.2167">BankCheck</text><line style="stroke:#2F4F4F;stroke-width:0.5;" x1="526" x2="748.3105" y1="385.37" y2="385.37"/><text fill="#000000" font-family="sans-serif" font-size="14" lengthAdjust="spacing" textLength="11.7305" x="531" y="402.3651">+</text><text fill="#000000" font-family="sans-serif" font-size="14" font-weight="bold" lengthAdjust="spacing" textLength="133.8682" x="542.7305" y="402.3651">id : Integer {PK}</text><text fill="#0000FF" font-family="sans-serif" font-size="14" lengthAdjust="spacing" textLength="212.3105" x="531" y="418.662">account_number : String {FK}</text><text fill="#000000" font-family="sans-serif" font-size="14" lengthAdjust="spacing" textLength="158.0264" x="531" y="434.9589">check_number : String</text><text fill="#000000" font-family="sans-serif" font-size="14" lengthAdjust="spacing" textLength="150.1992" x="531" y="451.2557">check_amount : Float</text><text fill="#000000" font-family="sans-serif" font-size="14" lengthAdjust="spacing" textLength="146.4053" x="531" y="467.5526">check_status : String</text><line style="stroke:#2F4F4F;stroke-width:0.5;" x1="526" x2="748.3105" y1="474.8544" y2="474.8544"/></g><!--class LoanMonitoring--><g class="entity" data-entity="LoanMonitoring" data-source-line="52" data-uid="ent0008" id="entity_LoanMonitoring"><rect fill="#F5F5F5" height="178.375" rx="2.5" ry="2.5" style="stroke:#2F4F4F;stroke-width:0.5;" width="249.3848" x="253.46" y="542.85"/><ellipse cx="319.5601" cy="558.85" fill="#ADD1B2" rx="11" ry="11" style="stroke:#181818;stroke-width:1;"/><path d="M322.5288,564.4906 Q321.9507,564.7875 321.3101,564.9281 Q320.6695,565.0844 319.9663,565.0844 Q317.4663,565.0844 316.1382,563.4438 Q314.8257,561.7875 314.8257,558.6625 Q314.8257,555.5375 316.1382,553.8813 Q317.4663,552.225 319.9663,552.225 Q320.6695,552.225 321.3101,552.3813 Q321.9663,552.5375 322.5288,552.8344 L322.5288,555.5531 Q321.9038,554.975 321.3101,554.7094 Q320.7163,554.4281 320.0913,554.4281 Q318.7476,554.4281 318.0601,555.5063 Q317.3726,556.5688 317.3726,558.6625 Q317.3726,560.7563 318.0601,561.8344 Q318.7476,562.8969 320.0913,562.8969 Q320.7163,562.8969 321.3101,562.6313 Q321.9038,562.35 322.5288,561.7719 L322.5288,564.4906 Z " fill="#000000"/><text fill="#000000" font-family="sans-serif" font-size="14" lengthAdjust="spacing" textLength="108.6846" x="340.0601" y="563.6967">LoanMonitoring</text><line style="stroke:#2F4F4F;stroke-width:0.5;" x1="254.46" x2="501.8448" y1="574.85" y2="574.85"/><text fill="#000000" font-family="sans-serif" font-size="14" lengthAdjust="spacing" textLength="11.7305" x="259.46" y="591.8451">+</text><text fill="#000000" font-family="sans-serif" font-size="14" font-weight="bold" lengthAdjust="spacing" textLength="133.8682" x="271.1905" y="591.8451">id : Integer {PK}</text><text fill="#0000FF" font-family="sans-serif" font-size="14" lengthAdjust="spacing" textLength="237.3848" x="259.46" y="608.142">loan_application_id : Integer {FK}</text><text fill="#000000" font-family="sans-serif" font-size="14" lengthAdjust="spacing" textLength="207.1904" x="259.46" y="624.4389">monitoring_date : Timestamp</text><text fill="#000000" font-family="sans-serif" font-size="14" lengthAdjust="spacing" textLength="130.4639" x="259.46" y="640.7357">risk_status : String</text><text fill="#000000" font-family="sans-serif" font-size="14" lengthAdjust="spacing" textLength="222.332" x="259.46" y="657.0326">check_validation_status : String</text><text fill="#000000" font-family="sans-serif" font-size="14" lengthAdjust="spacing" textLength="200.9629" x="259.46" y="673.3295">loan_provider_status : String</text><text fill="#000000" font-family="sans-serif" font-size="14" lengthAdjust="spacing" textLength="184.1465" x="259.46" y="689.6264">notification_status : String</text><text fill="#000000" font-family="sans-serif" font-size="14" lengthAdjust="spacing" textLength="171.3428" x="259.46" y="705.9232">customer_status : String</text><line style="stroke:#2F4F4F;stroke-width:0.5;" x1="254.46" x2="501.8448" y1="713.225" y2="713.225"/></g><!--link Customer to Account--><g class="link" data-entity-1="Customer" data-entity-2="Account" data-source-line="63" data-uid="lnk9" id="link_Customer_Account"><path codeLine="63" d="M282.92,112.27 C299.1,133.25 318.2,158.03 335.04,179.86" fill="none" id="Customer-Account" style="stroke:#2F4F4F;stroke-width:1;"/><text fill="#000000" font-family="sans-serif" font-size="13" lengthAdjust="spacing" textLength="8.271" x="279.546" y="132.2472">1</text><text fill="#000000" font-family="sans-serif" font-size="13" lengthAdjust="spacing" textLength="24.7749" x="304.3699" y="169.0846">0..n</text></g><!--link Bank to Account--><g class="link" data-entity-1="Bank" data-entity-2="Account" data-source-line="64" data-uid="lnk10" id="link_Bank_Account"><path codeLine="64" d="M467.61,120.64 C452.83,139.66 436.34,160.89 421.58,179.89" fill="none" id="Bank-Account" style="stroke:#2F4F4F;stroke-width:1;"/><text fill="#000000" font-family="sans-serif" font-size="13" lengthAdjust="spacing" textLength="8.271" x="454.1281" y="140.1777">1</text><text fill="#000000" font-family="sans-serif" font-size="13" lengthAdjust="spacing" textLength="24.7749" x="401.457" y="169.1182">0..n</text></g><!--link Account to BankingTransaction--><g class="link" data-entity-1="Account" data-entity-2="BankingTransaction" data-source-line="65" data-uid="lnk11" id="link_Account_BankingTransaction"><path codeLine="65" d="M297.27,293.78 C270.11,312.59 239.61,333.71 211.63,353.08" fill="none" id="Account-BankingTransaction" style="stroke:#2F4F4F;stroke-width:1;"/><text fill="#000000" font-family="sans-serif" font-size="13" lengthAdjust="spacing" textLength="8.271" x="279.4707" y="313.3131">1</text><text fill="#000000" font-family="sans-serif" font-size="13" lengthAdjust="spacing" textLength="24.7749" x="196.4743" y="342.2209">0..n</text></g><!--link Account to BankCheck--><g class="link" data-entity-1="Account" data-entity-2="BankCheck" data-source-line="66" data-uid="lnk12" id="link_Account_BankCheck"><path codeLine="66" d="M459.04,293.78 C486.2,312.59 516.7,333.71 544.68,353.08" fill="none" id="Account-BankCheck" style="stroke:#2F4F4F;stroke-width:1;"/><text fill="#000000" font-family="sans-serif" font-size="13" lengthAdjust="spacing" textLength="8.271" x="459.9454" y="313.3131">1</text><text fill="#000000" font-family="sans-serif" font-size="13" lengthAdjust="spacing" textLength="24.7749" x="509.2954" y="342.2209">0..n</text></g><!--link Account to LoanApplication--><g class="link" data-entity-1="Account" data-entity-2="LoanApplication" data-source-line="67" data-uid="lnk13" id="link_Account_LoanApplication"><path codeLine="67" d="M378.16,293.54 C378.16,315.03 378.16,339.56 378.16,361.08" fill="none" id="Account-LoanApplication" style="stroke:#2F4F4F;stroke-width:1;"/><text fill="#000000" font-family="sans-serif" font-size="13" lengthAdjust="spacing" textLength="8.271" x="369.6895" y="313.4474">1</text><text fill="#000000" font-family="sans-serif" font-size="13" lengthAdjust="spacing" textLength="24.7749" x="352.7453" y="350.2899">0..n</text></g><!--link LoanApplication to LoanMonitoring--><g class="link" data-entity-1="LoanApplication" data-entity-2="LoanMonitoring" data-source-line="68" data-uid="lnk14" id="link_LoanApplication_LoanMonitoring"><path codeLine="68" d="M378.16,475.07 C378.16,495.8 378.16,519.83 378.16,542.74" fill="none" id="LoanApplication-LoanMonitoring" style="stroke:#2F4F4F;stroke-width:1;"/><text fill="#000000" font-family="sans-serif" font-size="13" lengthAdjust="spacing" textLength="8.271" x="369.7137" y="494.5973">1</text><text fill="#000000" font-family="sans-serif" font-size="13" lengthAdjust="spacing" textLength="8.271" x="369.8406" y="531.7964">1</text></g><!--SRC=[jPJDJiCm48JlUGehnoB-hWWXjKMWgY0X5ObZj7LCiMAl8ti3AgZlZfEG12TfuG3NdSdkvydQBfEOWmNDk0BdfaHMhWiI2svm9Ty5EujSQ64V4MCpuDd6cWBJkL76igSNIMAbJIPAqTXKs5gu1fkj592ujR3rsjHQypOcxQAeRZyl71ajR3NdY4qcCcKNR84aDcNnORcRJBpoN2YL86ZXnPM7neql2WrITOMsvmmm-w5VlnLmxez72HPwBMpo2agcahP93aJ2udShVn4yE-1eCQPrpvOadD5-q45TyZAfYvagn1N_oYK9-M-MkylJodRL-s3j3ttGl0O5oCjJtoW35CRbEHuje0DEqk0FuNqVk_TGuN3gcYUqpSFiTHLJmnMQKxynNdgKMZW2dNVOTmPmckTASlWVPa-3IGjtBRZKe7pTSr3XzkpTlDoElsUfbwvdQkk31EloNj0okdk3aamzwzUqTIHTw0SNJhSJXd-HCIlTa32uNVM4eQM2oArvbVxT6T7Ha7nk04ScD3Th99xsDOhFOtPypEApanECcviSLG_BkDHSzb0TNgq3ncfrzkYzPO_woz-up-FUpuq-0G00]--></g></svg>