<svg xmlns="http://www.w3.org/2000/svg" xmlns:xlink="http://www.w3.org/1999/xlink" contentStyleType="text/css" data-diagram-type="CLASS" height="663px" preserveAspectRatio="none" style="width:756px;height:663px;background:#FFFFFF;" version="1.1" viewBox="0 0 756 663" width="756px" zoomAndPan="magnify"><defs/><g><!--class Customer--><g class="entity" data-entity="Customer" data-source-line="9" data-uid="ent0002" id="entity_Customer"><rect fill="#F5F5F5" height="96.8906" rx="2.5" ry="2.5" style="stroke:#2F4F4F;stroke-width:0.5;" width="157.5986" x="167.36" y="15.15"/><ellipse cx="208.2776" cy="31.15" fill="#ADD1B2" rx="11" ry="11" style="stroke:#181818;stroke-width:1;"/><path d="M211.2464,36.7906 Q210.6683,37.0875 210.0276,37.2281 Q209.387,37.3844 208.6839,37.3844 Q206.1839,37.3844 204.8558,35.7437 Q203.5433,34.0875 203.5433,30.9625 Q203.5433,27.8375 204.8558,26.1812 Q206.1839,24.525 208.6839,24.525 Q209.387,24.525 210.0276,24.6812 Q210.6839,24.8375 211.2464,25.1344 L211.2464,27.8531 Q210.6214,27.275 210.0276,27.0094 Q209.4339,26.7281 208.8089,26.7281 Q207.4651,26.7281 206.7776,27.8062 Q206.0901,28.8687 206.0901,30.9625 Q206.0901,33.0562 206.7776,34.1344 Q207.4651,35.1969 208.8089,35.1969 Q209.4339,35.1969 210.0276,34.9312 Q210.6214,34.65 211.2464,34.0719 L211.2464,36.7906 Z " fill="#000000"/><text fill="#000000" font-family="sans-serif" font-size="14" lengthAdjust="spacing" textLength="68.0039" x="228.0371" y="35.9967">Customer</text><line style="stroke:#2F4F4F;stroke-width:0.5;" x1="168.36" x2="323.9586" y1="47.15" y2="47.15"/><text fill="#000000" font-family="sans-serif" font-size="14" lengthAdjust="spacing" textLength="11.7305" x="173.36" y="64.1451">+</text><text fill="#000000" font-family="sans-serif" font-size="14" font-weight="bold" lengthAdjust="spacing" textLength="133.8682" x="185.0905" y="64.1451">id : Integer {PK}</text><text fill="#000000" font-family="sans-serif" font-size="14" lengthAdjust="spacing" textLength="123.6826" x="173.36" y="80.442">full_name : String</text><text fill="#000000" font-family="sans-serif" font-size="14" lengthAdjust="spacing" textLength="94.0078" x="173.36" y="96.7389">email : String</text><line style="stroke:#2F4F4F;stroke-width:0.5;" x1="168.36" x2="323.9586" y1="104.0406" y2="104.0406"/></g><!--class Bank--><g class="entity" data-entity="Bank" data-source-line="15" data-uid="ent0003" id="entity_Bank"><rect fill="#F5F5F5" height="113.1875" rx="2.5" ry="2.5" style="stroke:#2F4F4F;stroke-width:0.5;" width="301.6934" x="360.31" y="7"/><ellipse cx="489.3246" cy="23" fill="#ADD1B2" rx="11" ry="11" style="stroke:#181818;stroke-width:1;"/><path d="M492.2934,28.6406 Q491.7153,28.9375 491.0746,29.0781 Q490.434,29.2344 489.7309,29.2344 Q487.2309,29.2344 485.9028,27.5938 Q484.5903,25.9375 484.5903,22.8125 Q484.5903,19.6875 485.9028,18.0313 Q487.2309,16.375 489.7309,16.375 Q490.434,16.375 491.0746,16.5313 Q491.7309,16.6875 492.2934,16.9844 L492.2934,19.7031 Q491.6684,19.125 491.0746,18.8594 Q490.4809,18.5781 489.8559,18.5781 Q488.5121,18.5781 487.8246,19.6563 Q487.1371,20.7188 487.1371,22.8125 Q487.1371,24.9063 487.8246,25.9844 Q488.5121,27.0469 489.8559,27.0469 Q490.4809,27.0469 491.0746,26.7813 Q491.6684,26.5 492.2934,25.9219 L492.2934,28.6406 Z " fill="#000000"/><text fill="#000000" font-family="sans-serif" font-size="14" lengthAdjust="spacing" textLength="35.1641" x="509.8246" y="27.8467">Bank</text><line style="stroke:#2F4F4F;stroke-width:0.5;" x1="361.31" x2="661.0034" y1="39" y2="39"/><text fill="#000000" font-family="sans-serif" font-size="14" lengthAdjust="spacing" textLength="11.7305" x="366.31" y="55.9951">+</text><text fill="#000000" font-family="sans-serif" font-size="14" font-weight="bold" lengthAdjust="spacing" textLength="133.8682" x="378.0405" y="55.9951">id : Integer {PK}</text><text fill="#000000" font-family="sans-serif" font-size="14" lengthAdjust="spacing" textLength="95.1016" x="366.31" y="72.292">name : String</text><text fill="#000000" font-family="sans-serif" font-size="14" lengthAdjust="spacing" textLength="289.6934" x="366.31" y="88.5889">account_number_validity_pattern : String</text><text fill="#000000" font-family="sans-serif" font-size="14" lengthAdjust="spacing" textLength="213.2676" x="366.31" y="104.8857">check_validity_pattern : String</text><line style="stroke:#2F4F4F;stroke-width:0.5;" x1="361.31" x2="661.0034" y1="112.1875" y2="112.1875"/></g><!--class Account--><g class="entity" data-entity="Account" data-source-line="22" data-uid="ent0004" id="entity_Account"><rect fill="#F5F5F5" height="113.1875" rx="2.5" ry="2.5" style="stroke:#2F4F4F;stroke-width:0.5;" width="263.6924" x="246.31" y="180.19"/><ellipse cx="345.52" cy="196.19" fill="#ADD1B2" rx="11" ry="11" style="stroke:#181818;stroke-width:1;"/><path d="M348.4887,201.8306 Q347.9106,202.1275 347.27,202.2681 Q346.6293,202.4244 345.9262,202.4244 Q343.4262,202.4244 342.0981,200.7837 Q340.7856,199.1275 340.7856,196.0025 Q340.7856,192.8775 342.0981,191.2212 Q343.4262,189.565 345.9262,189.565 Q346.6293,189.565 347.27,189.7212 Q347.9262,189.8775 348.4887,190.1744 L348.4887,192.8931 Q347.8637,192.315 347.27,192.0494 Q346.6762,191.7681 346.0512,191.7681 Q344.7075,191.7681 344.02,192.8462 Q343.3325,193.9087 343.3325,196.0025 Q343.3325,198.0962 344.02,199.1744 Q344.7075,200.2369 346.0512,200.2369 Q346.6762,200.2369 347.27,199.9712 Q347.8637,199.69 348.4887,199.1119 L348.4887,201.8306 Z " fill="#000000"/><text fill="#000000" font-family="sans-serif" font-size="14" lengthAdjust="spacing" textLength="56.7725" x="366.02" y="201.0367">Account</text><line style="stroke:#2F4F4F;stroke-width:0.5;" x1="247.31" x2="509.0024" y1="212.19" y2="212.19"/><text fill="#000000" font-family="sans-serif" font-size="14" lengthAdjust="spacing" textLength="11.7305" x="252.31" y="229.1851">+</text><text fill="#000000" font-family="sans-serif" font-size="14" font-weight="bold" lengthAdjust="spacing" textLength="239.9619" x="264.0405" y="229.1851">account_number : String {PK}</text><text fill="#0000FF" font-family="sans-serif" font-size="14" lengthAdjust="spacing" textLength="189.1777" x="252.31" y="245.482">customer_id : Integer {FK}</text><text fill="#0000FF" font-family="sans-serif" font-size="14" lengthAdjust="spacing" textLength="157.6982" x="252.31" y="261.7789">bank_id : Integer {FK}</text><text fill="#000000" font-family="sans-serif" font-size="14" lengthAdjust="spacing" textLength="103.3115" x="252.31" y="278.0757">balance : Float</text><line style="stroke:#2F4F4F;stroke-width:0.5;" x1="247.31" x2="509.0024" y1="285.3775" y2="285.3775"/></g><!--class BankingTransaction--><g class="entity" data-entity="BankingTransaction" data-source-line="29" data-uid="ent0005" id="entity_BankingTransaction"><rect fill="#F5F5F5" height="129.4844" rx="2.5" ry="2.5" style="stroke:#2F4F4F;stroke-width:0.5;" width="224.3105" x="7" y="353.38"/><ellipse cx="46.0073" cy="369.38" fill="#ADD1B2" rx="11" ry="11" style="stroke:#181818;stroke-width:1;"/><path d="M48.9761,375.0206 Q48.3979,375.3175 47.7573,375.4581 Q47.1167,375.6144 46.4136,375.6144 Q43.9136,375.6144 42.5854,373.9737 Q41.2729,372.3175 41.2729,369.1925 Q41.2729,366.0675 42.5854,364.4112 Q43.9136,362.755 46.4136,362.755 Q47.1167,362.755 47.7573,362.9112 Q48.4136,363.0675 48.9761,363.3644 L48.9761,366.0831 Q48.3511,365.505 47.7573,365.2394 Q47.1636,364.9581 46.5386,364.9581 Q45.1948,364.9581 44.5073,366.0362 Q43.8198,367.0987 43.8198,369.1925 Q43.8198,371.2862 44.5073,372.3644 Q45.1948,373.4269 46.5386,373.4269 Q47.1636,373.4269 47.7573,373.1612 Q48.3511,372.88 48.9761,372.3019 L48.9761,375.0206 Z " fill="#000000"/><text fill="#000000" font-family="sans-serif" font-size="14" lengthAdjust="spacing" textLength="138.9609" x="65.3423" y="374.2267">BankingTransaction</text><line style="stroke:#2F4F4F;stroke-width:0.5;" x1="8" x2="230.3105" y1="385.38" y2="385.38"/><text fill="#000000" font-family="sans-serif" font-size="14" lengthAdjust="spacing" textLength="11.7305" x="13" y="402.3751">+</text><text fill="#000000" font-family="sans-serif" font-size="14" font-weight="bold" lengthAdjust="spacing" textLength="133.8682" x="24.7305" y="402.3751">id : Integer {PK}</text><text fill="#0000FF" font-family="sans-serif" font-size="14" lengthAdjust="spacing" textLength="212.3105" x="13" y="418.672">account_number : String {FK}</text><text fill="#000000" font-family="sans-serif" font-size="14" lengthAdjust="spacing" textLength="172.7578" x="13" y="434.9689">transaction_type : String</text><text fill="#000000" font-family="sans-serif" font-size="14" lengthAdjust="spacing" textLength="102.2109" x="13" y="451.2657">amount : Float</text><text fill="#000000" font-family="sans-serif" font-size="14" lengthAdjust="spacing" textLength="209.8496" x="13" y="467.5626">transaction_date : Timestamp</text><line style="stroke:#2F4F4F;stroke-width:0.5;" x1="8" x2="230.3105" y1="474.8644" y2="474.8644"/></g><!--class Loan--><g class="entity" data-entity="Loan" data-source-line="37" data-uid="ent0006" id="entity_Loan"><rect fill="#F5F5F5" height="113.1875" rx="2.5" ry="2.5" style="stroke:#2F4F4F;stroke-width:0.5;" width="224.3105" x="266" y="361.53"/><ellipse cx="356.9966" cy="377.53" fill="#ADD1B2" rx="11" ry="11" style="stroke:#181818;stroke-width:1;"/><path d="M359.9653,383.1706 Q359.3872,383.4675 358.7466,383.6081 Q358.106,383.7644 357.4028,383.7644 Q354.9028,383.7644 353.5747,382.1238 Q352.2622,380.4675 352.2622,377.3425 Q352.2622,374.2175 353.5747,372.5613 Q354.9028,370.905 357.4028,370.905 Q358.106,370.905 358.7466,371.0613 Q359.4028,371.2175 359.9653,371.5144 L359.9653,374.2331 Q359.3403,373.655 358.7466,373.3894 Q358.1528,373.1081 357.5278,373.1081 Q356.1841,373.1081 355.4966,374.1863 Q354.8091,375.2488 354.8091,377.3425 Q354.8091,379.4363 355.4966,380.5144 Q356.1841,381.5769 357.5278,381.5769 Q358.1528,381.5769 358.7466,381.3113 Q359.3403,381.03 359.9653,380.4519 L359.9653,383.1706 Z " fill="#000000"/><text fill="#000000" font-family="sans-serif" font-size="14" lengthAdjust="spacing" textLength="33.8174" x="377.4966" y="382.3767">Loan</text><line style="stroke:#2F4F4F;stroke-width:0.5;" x1="267" x2="489.3105" y1="393.53" y2="393.53"/><text fill="#000000" font-family="sans-serif" font-size="14" lengthAdjust="spacing" textLength="11.7305" x="272" y="410.5251">+</text><text fill="#000000" font-family="sans-serif" font-size="14" font-weight="bold" lengthAdjust="spacing" textLength="133.8682" x="283.7305" y="410.5251">id : Integer {PK}</text><text fill="#0000FF" font-family="sans-serif" font-size="14" lengthAdjust="spacing" textLength="212.3105" x="272" y="426.822">account_number : String {FK}</text><text fill="#000000" font-family="sans-serif" font-size="14" lengthAdjust="spacing" textLength="139.1182" x="272" y="443.1189">loan_amount : Float</text><text fill="#000000" font-family="sans-serif" font-size="14" lengthAdjust="spacing" textLength="135.3242" x="272" y="459.4157">loan_status : String</text><line style="stroke:#2F4F4F;stroke-width:0.5;" x1="267" x2="489.3105" y1="466.7175" y2="466.7175"/></g><!--class BankCheck--><g class="entity" data-entity="BankCheck" data-source-line="44" data-uid="ent0007" id="entity_BankCheck"><rect fill="#F5F5F5" height="129.4844" rx="2.5" ry="2.5" style="stroke:#2F4F4F;stroke-width:0.5;" width="224.3105" x="525" y="353.38"/><ellipse cx="593.79" cy="369.38" fill="#ADD1B2" rx="11" ry="11" style="stroke:#181818;stroke-width:1;"/><path d="M596.7588,375.0206 Q596.1807,375.3175 595.54,375.4581 Q594.8994,375.6144 594.1963,375.6144 Q591.6963,375.6144 590.3682,373.9737 Q589.0557,372.3175 589.0557,369.1925 Q589.0557,366.0675 590.3682,364.4112 Q591.6963,362.755 594.1963,362.755 Q594.8994,362.755 595.54,362.9112 Q596.1963,363.0675 596.7588,363.3644 L596.7588,366.0831 Q596.1338,365.505 595.54,365.2394 Q594.9463,364.9581 594.3213,364.9581 Q592.9775,364.9581 592.29,366.0362 Q591.6025,367.0987 591.6025,369.1925 Q591.6025,371.2862 592.29,372.3644 Q592.9775,373.4269 594.3213,373.4269 Q594.9463,373.4269 595.54,373.1612 Q596.1338,372.88 596.7588,372.3019 L596.7588,375.0206 Z " fill="#000000"/><text fill="#000000" font-family="sans-serif" font-size="14" lengthAdjust="spacing" textLength="78.2305" x="614.29" y="374.2267">BankCheck</text><line style="stroke:#2F4F4F;stroke-width:0.5;" x1="526" x2="748.3105" y1="385.38" y2="385.38"/><text fill="#000000" font-family="sans-serif" font-size="14" lengthAdjust="spacing" textLength="11.7305" x="531" y="402.3751">+</text><text fill="#000000" font-family="sans-serif" font-size="14" font-weight="bold" lengthAdjust="spacing" textLength="133.8682" x="542.7305" y="402.3751">id : Integer {PK}</text><text fill="#0000FF" font-family="sans-serif" font-size="14" lengthAdjust="spacing" textLength="212.3105" x="531" y="418.672">account_number : String {FK}</text><text fill="#000000" font-family="sans-serif" font-size="14" lengthAdjust="spacing" textLength="158.0264" x="531" y="434.9689">check_number : String</text><text fill="#000000" font-family="sans-serif" font-size="14" lengthAdjust="spacing" textLength="150.1992" x="531" y="451.2657">check_amount : Float</text><text fill="#000000" font-family="sans-serif" font-size="14" lengthAdjust="spacing" textLength="146.4053" x="531" y="467.5626">check_status : String</text><line style="stroke:#2F4F4F;stroke-width:0.5;" x1="526" x2="748.3105" y1="474.8644" y2="474.8644"/></g><!--class LoanMonitoring--><g class="entity" data-entity="LoanMonitoring" data-source-line="52" data-uid="ent0008" id="entity_LoanMonitoring"><rect fill="#F5F5F5" height="113.1875" rx="2.5" ry="2.5" style="stroke:#2F4F4F;stroke-width:0.5;" width="212.9629" x="271.67" y="542.86"/><ellipse cx="319.5592" cy="558.86" fill="#ADD1B2" rx="11" ry="11" style="stroke:#181818;stroke-width:1;"/><path d="M322.5279,564.5006 Q321.9498,564.7975 321.3092,564.9381 Q320.6685,565.0944 319.9654,565.0944 Q317.4654,565.0944 316.1373,563.4537 Q314.8248,561.7975 314.8248,558.6725 Q314.8248,555.5475 316.1373,553.8912 Q317.4654,552.235 319.9654,552.235 Q320.6685,552.235 321.3092,552.3912 Q321.9654,552.5475 322.5279,552.8444 L322.5279,555.5631 Q321.9029,554.985 321.3092,554.7194 Q320.7154,554.4381 320.0904,554.4381 Q318.7467,554.4381 318.0592,555.5162 Q317.3717,556.5787 317.3717,558.6725 Q317.3717,560.7662 318.0592,561.8444 Q318.7467,562.9069 320.0904,562.9069 Q320.7154,562.9069 321.3092,562.6412 Q321.9029,562.36 322.5279,561.7819 L322.5279,564.5006 Z " fill="#000000"/><text fill="#000000" font-family="sans-serif" font-size="14" lengthAdjust="spacing" textLength="108.6846" x="340.0592" y="563.7067">LoanMonitoring</text><line style="stroke:#2F4F4F;stroke-width:0.5;" x1="272.67" x2="483.6329" y1="574.86" y2="574.86"/><text fill="#000000" font-family="sans-serif" font-size="14" lengthAdjust="spacing" textLength="11.7305" x="277.67" y="591.8551">+</text><text fill="#000000" font-family="sans-serif" font-size="14" font-weight="bold" lengthAdjust="spacing" textLength="133.8682" x="289.4005" y="591.8551">id : Integer {PK}</text><text fill="#0000FF" font-family="sans-serif" font-size="14" lengthAdjust="spacing" textLength="153.1592" x="277.67" y="608.152">loan_id : Integer {FK}</text><text fill="#000000" font-family="sans-serif" font-size="14" lengthAdjust="spacing" textLength="130.4639" x="277.67" y="624.4489">risk_status : String</text><text fill="#000000" font-family="sans-serif" font-size="14" lengthAdjust="spacing" textLength="200.9629" x="277.67" y="640.7457">loan_provider_status : String</text><line style="stroke:#2F4F4F;stroke-width:0.5;" x1="272.67" x2="483.6329" y1="648.0475" y2="648.0475"/></g><!--link Customer to Account--><g class="link" data-entity-1="Customer" data-entity-2="Account" data-source-line="59" data-uid="lnk9" id="link_Customer_Account"><path codeLine="59" d="M282.92,112.28 C299.1,133.26 318.2,158.03 335.04,179.87" fill="none" id="Customer-Account" style="stroke:#2F4F4F;stroke-width:1;"/><text fill="#000000" font-family="sans-serif" font-size="13" lengthAdjust="spacing" textLength="8.271" x="279.546" y="132.2572">1</text><text fill="#000000" font-family="sans-serif" font-size="13" lengthAdjust="spacing" textLength="24.7749" x="304.3699" y="169.0946">0..n</text></g><!--link Bank to Account--><g class="link" data-entity-1="Bank" data-entity-2="Account" data-source-line="60" data-uid="lnk10" id="link_Bank_Account"><path codeLine="60" d="M467.61,120.65 C452.83,139.66 436.34,160.9 421.58,179.9" fill="none" id="Bank-Account" style="stroke:#2F4F4F;stroke-width:1;"/><text fill="#000000" font-family="sans-serif" font-size="13" lengthAdjust="spacing" textLength="8.271" x="454.1281" y="140.1889">1</text><text fill="#000000" font-family="sans-serif" font-size="13" lengthAdjust="spacing" textLength="24.7749" x="401.457" y="169.1282">0..n</text></g><!--link Account to BankingTransaction--><g class="link" data-entity-1="Account" data-entity-2="BankingTransaction" data-source-line="61" data-uid="lnk11" id="link_Account_BankingTransaction"><path codeLine="61" d="M297.27,293.79 C270.11,312.6 239.61,333.72 211.63,353.09" fill="none" id="Account-BankingTransaction" style="stroke:#2F4F4F;stroke-width:1;"/><text fill="#000000" font-family="sans-serif" font-size="13" lengthAdjust="spacing" textLength="8.271" x="279.4707" y="313.3231">1</text><text fill="#000000" font-family="sans-serif" font-size="13" lengthAdjust="spacing" textLength="24.7749" x="196.4743" y="342.2309">0..n</text></g><!--link Account to BankCheck--><g class="link" data-entity-1="Account" data-entity-2="BankCheck" data-source-line="62" data-uid="lnk12" id="link_Account_BankCheck"><path codeLine="62" d="M459.04,293.79 C486.2,312.6 516.7,333.72 544.68,353.09" fill="none" id="Account-BankCheck" style="stroke:#2F4F4F;stroke-width:1;"/><text fill="#000000" font-family="sans-serif" font-size="13" lengthAdjust="spacing" textLength="8.271" x="459.9454" y="313.3231">1</text><text fill="#000000" font-family="sans-serif" font-size="13" lengthAdjust="spacing" textLength="24.7749" x="509.2954" y="342.2309">0..n</text></g><!--link Account to Loan--><g class="link" data-entity-1="Account" data-entity-2="Loan" data-source-line="63" data-uid="lnk13" id="link_Account_Loan"><path codeLine="63" d="M378.16,293.54 C378.16,315.03 378.16,339.57 378.16,361.09" fill="none" id="Account-Loan" style="stroke:#2F4F4F;stroke-width:1;"/><text fill="#000000" font-family="sans-serif" font-size="13" lengthAdjust="spacing" textLength="8.271" x="369.6895" y="313.4462">1</text><text fill="#000000" font-family="sans-serif" font-size="13" lengthAdjust="spacing" textLength="24.7749" x="352.7453" y="350.2999">0..n</text></g><!--link Loan to LoanMonitoring--><g class="link" data-entity-1="Loan" data-entity-2="LoanMonitoring" data-source-line="64" data-uid="lnk14" id="link_Loan_LoanMonitoring"><path codeLine="64" d="M378.16,474.88 C378.16,496.37 378.16,520.91 378.16,542.42" fill="none" id="Loan-LoanMonitoring" style="stroke:#2F4F4F;stroke-width:1;"/><text fill="#000000" font-family="sans-serif" font-size="13" lengthAdjust="spacing" textLength="8.271" x="369.6896" y="494.7862">1</text><text fill="#000000" font-family="sans-serif" font-size="13" lengthAdjust="spacing" textLength="8.271" x="369.6901" y="531.6299">1</text></g><!--SRC=[jPHDQy9048Rl-HLBZYbQlOe8Qh68BHGKUWpZPgjBzYFiJYos-D-xIKmqHcCFxNNUsPbdtip4nbmbO40IAi3QCQBXwnJPd6grv5-Cz3nRJo7V7Y4JeF76w5H5Kosq8UzRZcmfTSmoKPk8cK9u0XCl1I1xDh1tsjWO_NbDEdXUKNwQMjIIcRpF0ma27f41cIjacopujZW4WLC-KY521P8vSUcWrSO5cGGkJe6gvWHKVAVUPIcWr8s7eKhbcfbm1u977FTX0eZCgFDKkcKqRiceCCP5pOgatgDwS88QqiofmKIaR4IFleHr_jdYC7pCqqON3zPkwDRaDGXGD9jw9ZHWtIx7iJAWB53aMjqnxxpjpQ7gpV5KFCHzKlTUvZQLNFNao6sCarPSCeiWanFsYuP_07K8AcmGvL7N7rDxOz-csLRyFKwnR1T9LRp1MOHlWcQMlMh5KHUzVasRpz-sN8RRPj-ZRudHE-v-4TUuglFt-pxfT8ZVwtQLNvwEbr_oTQcyhhhQtEMMnFoRtT0pgxnynSfutx_mp_i1]--></g></svg>