<svg xmlns="http://www.w3.org/2000/svg" xmlns:xlink="http://www.w3.org/1999/xlink" contentStyleType="text/css" data-diagram-type="CLASS" height="744px" preserveAspectRatio="none" style="width:765px;height:744px;background:#FFFFFF;" version="1.1" viewBox="0 0 765 744" width="765px" zoomAndPan="magnify"><defs/><g><!--class Customer--><g class="entity" data-entity="Customer" data-source-line="10" data-uid="ent0002" id="entity_Customer"><rect fill="#F5F5F5" height="96.8906" rx="2.5" ry="2.5" style="stroke:#2F4F4F;stroke-width:0.5;" width="157.5986" x="167.36" y="15.15"/><ellipse cx="208.2776" cy="31.15" fill="#ADD1B2" rx="11" ry="11" style="stroke:#181818;stroke-width:1;"/><path d="M211.2464,36.7906 Q210.6683,37.0875 210.0276,37.2281 Q209.387,37.3844 208.6839,37.3844 Q206.1839,37.3844 204.8558,35.7437 Q203.5433,34.0875 203.5433,30.9625 Q203.5433,27.8375 204.8558,26.1812 Q206.1839,24.525 208.6839,24.525 Q209.387,24.525 210.0276,24.6812 Q210.6839,24.8375 211.2464,25.1344 L211.2464,27.8531 Q210.6214,27.275 210.0276,27.0094 Q209.4339,26.7281 208.8089,26.7281 Q207.4651,26.7281 206.7776,27.8062 Q206.0901,28.8687 206.0901,30.9625 Q206.0901,33.0562 206.7776,34.1344 Q207.4651,35.1969 208.8089,35.1969 Q209.4339,35.1969 210.0276,34.9312 Q210.6214,34.65 211.2464,34.0719 L211.2464,36.7906 Z " fill="#000000"/><text fill="#000000" font-family="sans-serif" font-size="14" lengthAdjust="spacing" textLength="68.0039" x="228.0371" y="35.9967">Customer</text><line style="stroke:#2F4F4F;stroke-width:0.5;" x1="168.36" x2="323.9586" y1="47.15" y2="47.15"/><text fill="#000000" font-family="sans-serif" font-size="14" lengthAdjust="spacing" textLength="11.7305" x="173.36" y="64.1451">+</text><text fill="#000000" font-family="sans-serif" font-size="14" font-weight="bold" lengthAdjust="spacing" textLength="133.8682" x="185.0905" y="64.1451">id : Integer {PK}</text><text fill="#000000" font-family="sans-serif" font-size="14" lengthAdjust="spacing" textLength="123.6826" x="173.36" y="80.442">full_name : String</text><text fill="#000000" font-family="sans-serif" font-size="14" lengthAdjust="spacing" textLength="94.0078" x="173.36" y="96.7389">email : String</text><line style="stroke:#2F4F4F;stroke-width:0.5;" x1="168.36" x2="323.9586" y1="104.0406" y2="104.0406"/></g><!--class Bank--><g class="entity" data-entity="Bank" data-source-line="16" data-uid="ent0003" id="entity_Bank"><rect fill="#F5F5F5" height="113.1875" rx="2.5" ry="2.5" style="stroke:#2F4F4F;stroke-width:0.5;" width="301.6934" x="360.31" y="7"/><ellipse cx="489.3246" cy="23" fill="#ADD1B2" rx="11" ry="11" style="stroke:#181818;stroke-width:1;"/><path d="M492.2934,28.6406 Q491.7153,28.9375 491.0746,29.0781 Q490.434,29.2344 489.7309,29.2344 Q487.2309,29.2344 485.9028,27.5938 Q484.5903,25.9375 484.5903,22.8125 Q484.5903,19.6875 485.9028,18.0313 Q487.2309,16.375 489.7309,16.375 Q490.434,16.375 491.0746,16.5313 Q491.7309,16.6875 492.2934,16.9844 L492.2934,19.7031 Q491.6684,19.125 491.0746,18.8594 Q490.4809,18.5781 489.8559,18.5781 Q488.5121,18.5781 487.8246,19.6563 Q487.1371,20.7188 487.1371,22.8125 Q487.1371,24.9063 487.8246,25.9844 Q488.5121,27.0469 489.8559,27.0469 Q490.4809,27.0469 491.0746,26.7813 Q491.6684,26.5 492.2934,25.9219 L492.2934,28.6406 Z " fill="#000000"/><text fill="#000000" font-family="sans-serif" font-size="14" lengthAdjust="spacing" textLength="35.1641" x="509.8246" y="27.8467">Bank</text><line style="stroke:#2F4F4F;stroke-width:0.5;" x1="361.31" x2="661.0034" y1="39" y2="39"/><text fill="#000000" font-family="sans-serif" font-size="14" lengthAdjust="spacing" textLength="11.7305" x="366.31" y="55.9951">+</text><text fill="#000000" font-family="sans-serif" font-size="14" font-weight="bold" lengthAdjust="spacing" textLength="133.8682" x="378.0405" y="55.9951">id : Integer {PK}</text><text fill="#000000" font-family="sans-serif" font-size="14" lengthAdjust="spacing" textLength="95.1016" x="366.31" y="72.292">name : String</text><text fill="#000000" font-family="sans-serif" font-size="14" lengthAdjust="spacing" textLength="289.6934" x="366.31" y="88.5889">account_number_validity_pattern : String</text><text fill="#000000" font-family="sans-serif" font-size="14" lengthAdjust="spacing" textLength="213.2676" x="366.31" y="104.8857">check_validity_pattern : String</text><line style="stroke:#2F4F4F;stroke-width:0.5;" x1="361.31" x2="661.0034" y1="112.1875" y2="112.1875"/></g><!--class Account--><g class="entity" data-entity="Account" data-source-line="23" data-uid="ent0004" id="entity_Account"><rect fill="#F5F5F5" height="113.1875" rx="2.5" ry="2.5" style="stroke:#2F4F4F;stroke-width:0.5;" width="263.6924" x="246.31" y="180.19"/><ellipse cx="345.52" cy="196.19" fill="#ADD1B2" rx="11" ry="11" style="stroke:#181818;stroke-width:1;"/><path d="M348.4887,201.8306 Q347.9106,202.1275 347.27,202.2681 Q346.6293,202.4244 345.9262,202.4244 Q343.4262,202.4244 342.0981,200.7837 Q340.7856,199.1275 340.7856,196.0025 Q340.7856,192.8775 342.0981,191.2212 Q343.4262,189.565 345.9262,189.565 Q346.6293,189.565 347.27,189.7212 Q347.9262,189.8775 348.4887,190.1744 L348.4887,192.8931 Q347.8637,192.315 347.27,192.0494 Q346.6762,191.7681 346.0512,191.7681 Q344.7075,191.7681 344.02,192.8462 Q343.3325,193.9087 343.3325,196.0025 Q343.3325,198.0962 344.02,199.1744 Q344.7075,200.2369 346.0512,200.2369 Q346.6762,200.2369 347.27,199.9712 Q347.8637,199.69 348.4887,199.1119 L348.4887,201.8306 Z " fill="#000000"/><text fill="#000000" font-family="sans-serif" font-size="14" lengthAdjust="spacing" textLength="56.7725" x="366.02" y="201.0367">Account</text><line style="stroke:#2F4F4F;stroke-width:0.5;" x1="247.31" x2="509.0024" y1="212.19" y2="212.19"/><text fill="#000000" font-family="sans-serif" font-size="14" lengthAdjust="spacing" textLength="11.7305" x="252.31" y="229.1851">+</text><text fill="#000000" font-family="sans-serif" font-size="14" font-weight="bold" lengthAdjust="spacing" textLength="239.9619" x="264.0405" y="229.1851">account_number : String {PK}</text><text fill="#0000FF" font-family="sans-serif" font-size="14" lengthAdjust="spacing" textLength="189.1777" x="252.31" y="245.482">customer_id : Integer {FK}</text><text fill="#0000FF" font-family="sans-serif" font-size="14" lengthAdjust="spacing" textLength="157.6982" x="252.31" y="261.7789">bank_id : Integer {FK}</text><text fill="#000000" font-family="sans-serif" font-size="14" lengthAdjust="spacing" textLength="103.3115" x="252.31" y="278.0757">balance : Float</text><line style="stroke:#2F4F4F;stroke-width:0.5;" x1="247.31" x2="509.0024" y1="285.3775" y2="285.3775"/></g><!--class BankingTransaction--><g class="entity" data-entity="BankingTransaction" data-source-line="30" data-uid="ent0005" id="entity_BankingTransaction"><rect fill="#F5F5F5" height="129.4844" rx="2.5" ry="2.5" style="stroke:#2F4F4F;stroke-width:0.5;" width="224.3105" x="7" y="361.52"/><ellipse cx="46.0073" cy="377.52" fill="#ADD1B2" rx="11" ry="11" style="stroke:#181818;stroke-width:1;"/><path d="M48.9761,383.1606 Q48.3979,383.4575 47.7573,383.5981 Q47.1167,383.7544 46.4136,383.7544 Q43.9136,383.7544 42.5854,382.1138 Q41.2729,380.4575 41.2729,377.3325 Q41.2729,374.2075 42.5854,372.5513 Q43.9136,370.895 46.4136,370.895 Q47.1167,370.895 47.7573,371.0513 Q48.4136,371.2075 48.9761,371.5044 L48.9761,374.2231 Q48.3511,373.645 47.7573,373.3794 Q47.1636,373.0981 46.5386,373.0981 Q45.1948,373.0981 44.5073,374.1763 Q43.8198,375.2388 43.8198,377.3325 Q43.8198,379.4263 44.5073,380.5044 Q45.1948,381.5669 46.5386,381.5669 Q47.1636,381.5669 47.7573,381.3013 Q48.3511,381.02 48.9761,380.4419 L48.9761,383.1606 Z " fill="#000000"/><text fill="#000000" font-family="sans-serif" font-size="14" lengthAdjust="spacing" textLength="138.9609" x="65.3423" y="382.3667">BankingTransaction</text><line style="stroke:#2F4F4F;stroke-width:0.5;" x1="8" x2="230.3105" y1="393.52" y2="393.52"/><text fill="#000000" font-family="sans-serif" font-size="14" lengthAdjust="spacing" textLength="11.7305" x="13" y="410.5151">+</text><text fill="#000000" font-family="sans-serif" font-size="14" font-weight="bold" lengthAdjust="spacing" textLength="133.8682" x="24.7305" y="410.5151">id : Integer {PK}</text><text fill="#0000FF" font-family="sans-serif" font-size="14" lengthAdjust="spacing" textLength="212.3105" x="13" y="426.812">account_number : String {FK}</text><text fill="#000000" font-family="sans-serif" font-size="14" lengthAdjust="spacing" textLength="172.7578" x="13" y="443.1089">transaction_type : String</text><text fill="#000000" font-family="sans-serif" font-size="14" lengthAdjust="spacing" textLength="102.2109" x="13" y="459.4057">amount : Float</text><text fill="#000000" font-family="sans-serif" font-size="14" lengthAdjust="spacing" textLength="209.8496" x="13" y="475.7026">transaction_date : Timestamp</text><line style="stroke:#2F4F4F;stroke-width:0.5;" x1="8" x2="230.3105" y1="483.0044" y2="483.0044"/></g><!--class LoanApplication--><g class="entity" data-entity="LoanApplication" data-source-line="38" data-uid="ent0006" id="entity_LoanApplication"><rect fill="#F5F5F5" height="113.1875" rx="2.5" ry="2.5" style="stroke:#2F4F4F;stroke-width:0.5;" width="224.3105" x="266" y="369.67"/><ellipse cx="317.8848" cy="385.67" fill="#ADD1B2" rx="11" ry="11" style="stroke:#181818;stroke-width:1;"/><path d="M320.8535,391.3106 Q320.2754,391.6075 319.6348,391.7481 Q318.9941,391.9044 318.291,391.9044 Q315.791,391.9044 314.4629,390.2637 Q313.1504,388.6075 313.1504,385.4825 Q313.1504,382.3575 314.4629,380.7012 Q315.791,379.045 318.291,379.045 Q318.9941,379.045 319.6348,379.2012 Q320.291,379.3575 320.8535,379.6544 L320.8535,382.3731 Q320.2285,381.795 319.6348,381.5294 Q319.041,381.2481 318.416,381.2481 Q317.0723,381.2481 316.3848,382.3262 Q315.6973,383.3887 315.6973,385.4825 Q315.6973,387.5762 316.3848,388.6544 Q317.0723,389.7169 318.416,389.7169 Q319.041,389.7169 319.6348,389.4512 Q320.2285,389.17 320.8535,388.5919 L320.8535,391.3106 Z " fill="#000000"/><text fill="#000000" font-family="sans-serif" font-size="14" lengthAdjust="spacing" textLength="112.041" x="338.3848" y="390.5167">LoanApplication</text><line style="stroke:#2F4F4F;stroke-width:0.5;" x1="267" x2="489.3105" y1="401.67" y2="401.67"/><text fill="#000000" font-family="sans-serif" font-size="14" lengthAdjust="spacing" textLength="11.7305" x="272" y="418.6651">+</text><text fill="#000000" font-family="sans-serif" font-size="14" font-weight="bold" lengthAdjust="spacing" textLength="133.8682" x="283.7305" y="418.6651">id : Integer {PK}</text><text fill="#0000FF" font-family="sans-serif" font-size="14" lengthAdjust="spacing" textLength="212.3105" x="272" y="434.962">account_number : String {FK}</text><text fill="#000000" font-family="sans-serif" font-size="14" lengthAdjust="spacing" textLength="161.6289" x="272" y="451.2589">loan_amount : Decimal</text><text fill="#000000" font-family="sans-serif" font-size="14" lengthAdjust="spacing" textLength="98.417" x="272" y="467.5557">status : String</text><line style="stroke:#2F4F4F;stroke-width:0.5;" x1="267" x2="489.3105" y1="474.8575" y2="474.8575"/></g><!--class Check--><g class="entity" data-entity="Check" data-source-line="45" data-uid="ent0007" id="entity_Check"><rect fill="#F5F5F5" height="145.7813" rx="2.5" ry="2.5" style="stroke:#2F4F4F;stroke-width:0.5;" width="232.8896" x="525.71" y="353.37"/><ellipse cx="616.3716" cy="369.37" fill="#ADD1B2" rx="11" ry="11" style="stroke:#181818;stroke-width:1;"/><path d="M619.3404,375.0106 Q618.7622,375.3075 618.1216,375.4481 Q617.481,375.6044 616.7779,375.6044 Q614.2779,375.6044 612.9497,373.9637 Q611.6372,372.3075 611.6372,369.1825 Q611.6372,366.0575 612.9497,364.4012 Q614.2779,362.745 616.7779,362.745 Q617.481,362.745 618.1216,362.9012 Q618.7779,363.0575 619.3404,363.3544 L619.3404,366.0731 Q618.7154,365.495 618.1216,365.2294 Q617.5279,364.9481 616.9029,364.9481 Q615.5591,364.9481 614.8716,366.0262 Q614.1841,367.0887 614.1841,369.1825 Q614.1841,371.2762 614.8716,372.3544 Q615.5591,373.4169 616.9029,373.4169 Q617.5279,373.4169 618.1216,373.1512 Q618.7154,372.87 619.3404,372.2919 L619.3404,375.0106 Z " fill="#000000"/><text fill="#000000" font-family="sans-serif" font-size="14" lengthAdjust="spacing" textLength="43.0664" x="636.8716" y="374.2167">Check</text><line style="stroke:#2F4F4F;stroke-width:0.5;" x1="526.71" x2="757.5996" y1="385.37" y2="385.37"/><text fill="#000000" font-family="sans-serif" font-size="14" lengthAdjust="spacing" textLength="11.7305" x="531.71" y="402.3651">+</text><text fill="#000000" font-family="sans-serif" font-size="14" font-weight="bold" lengthAdjust="spacing" textLength="133.8682" x="543.4405" y="402.3651">id : Integer {PK}</text><text fill="#0000FF" font-family="sans-serif" font-size="14" lengthAdjust="spacing" textLength="220.8896" x="531.71" y="418.662">account_number : Integer {FK}</text><text fill="#000000" font-family="sans-serif" font-size="14" lengthAdjust="spacing" textLength="158.0264" x="531.71" y="434.9589">check_number : String</text><text fill="#000000" font-family="sans-serif" font-size="14" lengthAdjust="spacing" textLength="109.6211" x="531.71" y="451.2557">bank_id : String</text><text fill="#000000" font-family="sans-serif" font-size="14" lengthAdjust="spacing" textLength="150.1992" x="531.71" y="467.5526">check_amount : Float</text><text fill="#000000" font-family="sans-serif" font-size="14" lengthAdjust="spacing" textLength="98.417" x="531.71" y="483.8495">status : String</text><line style="stroke:#2F4F4F;stroke-width:0.5;" x1="526.71" x2="757.5996" y1="491.1512" y2="491.1512"/></g><!--class LoanMonitoring--><g class="entity" data-entity="LoanMonitoring" data-source-line="54" data-uid="ent0008" id="entity_LoanMonitoring"><rect fill="#F5F5F5" height="178.375" rx="2.5" ry="2.5" style="stroke:#2F4F4F;stroke-width:0.5;" width="249.3848" x="253.46" y="559.15"/><ellipse cx="319.5601" cy="575.15" fill="#ADD1B2" rx="11" ry="11" style="stroke:#181818;stroke-width:1;"/><path d="M322.5288,580.7906 Q321.9507,581.0875 321.3101,581.2281 Q320.6695,581.3844 319.9663,581.3844 Q317.4663,581.3844 316.1382,579.7438 Q314.8257,578.0875 314.8257,574.9625 Q314.8257,571.8375 316.1382,570.1813 Q317.4663,568.525 319.9663,568.525 Q320.6695,568.525 321.3101,568.6813 Q321.9663,568.8375 322.5288,569.1344 L322.5288,571.8531 Q321.9038,571.275 321.3101,571.0094 Q320.7163,570.7281 320.0913,570.7281 Q318.7476,570.7281 318.0601,571.8063 Q317.3726,572.8688 317.3726,574.9625 Q317.3726,577.0563 318.0601,578.1344 Q318.7476,579.1969 320.0913,579.1969 Q320.7163,579.1969 321.3101,578.9313 Q321.9038,578.65 322.5288,578.0719 L322.5288,580.7906 Z " fill="#000000"/><text fill="#000000" font-family="sans-serif" font-size="14" lengthAdjust="spacing" textLength="108.6846" x="340.0601" y="579.9967">LoanMonitoring</text><line style="stroke:#2F4F4F;stroke-width:0.5;" x1="254.46" x2="501.8448" y1="591.15" y2="591.15"/><text fill="#000000" font-family="sans-serif" font-size="14" lengthAdjust="spacing" textLength="11.7305" x="259.46" y="608.1451">+</text><text fill="#000000" font-family="sans-serif" font-size="14" font-weight="bold" lengthAdjust="spacing" textLength="133.8682" x="271.1905" y="608.1451">id : Integer {PK}</text><text fill="#0000FF" font-family="sans-serif" font-size="14" lengthAdjust="spacing" textLength="237.3848" x="259.46" y="624.442">loan_application_id : Integer {FK}</text><text fill="#000000" font-family="sans-serif" font-size="14" lengthAdjust="spacing" textLength="207.1904" x="259.46" y="640.7389">monitoring_date : Timestamp</text><text fill="#000000" font-family="sans-serif" font-size="14" lengthAdjust="spacing" textLength="130.4639" x="259.46" y="657.0357">risk_status : String</text><text fill="#000000" font-family="sans-serif" font-size="14" lengthAdjust="spacing" textLength="222.332" x="259.46" y="673.3326">check_validation_status : String</text><text fill="#000000" font-family="sans-serif" font-size="14" lengthAdjust="spacing" textLength="200.9629" x="259.46" y="689.6295">loan_provider_status : String</text><text fill="#000000" font-family="sans-serif" font-size="14" lengthAdjust="spacing" textLength="184.1465" x="259.46" y="705.9264">notification_status : String</text><text fill="#000000" font-family="sans-serif" font-size="14" lengthAdjust="spacing" textLength="171.3428" x="259.46" y="722.2232">customer_status : String</text><line style="stroke:#2F4F4F;stroke-width:0.5;" x1="254.46" x2="501.8448" y1="729.525" y2="729.525"/></g><!--link Customer to Account--><g class="link" data-entity-1="Customer" data-entity-2="Account" data-source-line="66" data-uid="lnk9" id="link_Customer_Account"><path codeLine="66" d="M282.92,112.28 C299.1,133.25 318.2,158.03 335.04,179.87" fill="none" id="Customer-Account" style="stroke:#2F4F4F;stroke-width:1;"/><text fill="#000000" font-family="sans-serif" font-size="13" lengthAdjust="spacing" textLength="8.271" x="279.546" y="132.2572">1</text><text fill="#000000" font-family="sans-serif" font-size="13" lengthAdjust="spacing" textLength="24.7749" x="304.3699" y="169.0946">0..n</text></g><!--link Bank to Account--><g class="link" data-entity-1="Bank" data-entity-2="Account" data-source-line="67" data-uid="lnk10" id="link_Bank_Account"><path codeLine="67" d="M467.61,120.65 C452.83,139.66 436.34,160.89 421.58,179.89" fill="none" id="Bank-Account" style="stroke:#2F4F4F;stroke-width:1;"/><text fill="#000000" font-family="sans-serif" font-size="13" lengthAdjust="spacing" textLength="8.271" x="454.1281" y="140.1889">1</text><text fill="#000000" font-family="sans-serif" font-size="13" lengthAdjust="spacing" textLength="24.7749" x="401.457" y="169.117">0..n</text></g><!--link Account to BankingTransaction--><g class="link" data-entity-1="Account" data-entity-2="BankingTransaction" data-source-line="68" data-uid="lnk11" id="link_Account_BankingTransaction"><path codeLine="68" d="M300.8,293.78 C271.43,315.03 237.77,339.4 207.47,361.33" fill="none" id="Account-BankingTransaction" style="stroke:#2F4F4F;stroke-width:1;"/><text fill="#000000" font-family="sans-serif" font-size="13" lengthAdjust="spacing" textLength="8.271" x="283.4089" y="313.312">1</text><text fill="#000000" font-family="sans-serif" font-size="13" lengthAdjust="spacing" textLength="24.7749" x="191.8593" y="350.4819">0..n</text></g><!--link Account to Check--><g class="link" data-entity-1="Account" data-entity-2="Check" data-source-line="69" data-uid="lnk12" id="link_Account_Check"><path codeLine="69" d="M457.01,293.78 C483.14,312.34 512.61,333.26 540.22,352.88" fill="none" id="Account-Check" style="stroke:#2F4F4F;stroke-width:1;"/><text fill="#000000" font-family="sans-serif" font-size="13" lengthAdjust="spacing" textLength="8.271" x="457.6806" y="313.312">1</text><text fill="#000000" font-family="sans-serif" font-size="13" lengthAdjust="spacing" textLength="24.7749" x="505.3975" y="342.2443">0..n</text></g><!--link Account to LoanApplication--><g class="link" data-entity-1="Account" data-entity-2="LoanApplication" data-source-line="70" data-uid="lnk13" id="link_Account_LoanApplication"><path codeLine="70" d="M378.16,293.78 C378.16,317.62 378.16,345.38 378.16,369.23" fill="none" id="Account-LoanApplication" style="stroke:#2F4F4F;stroke-width:1;"/><text fill="#000000" font-family="sans-serif" font-size="13" lengthAdjust="spacing" textLength="8.271" x="369.7136" y="313.312">1</text><text fill="#000000" font-family="sans-serif" font-size="13" lengthAdjust="spacing" textLength="24.7749" x="352.7453" y="358.4399">0..n</text></g><!--link LoanApplication to LoanMonitoring--><g class="link" data-entity-1="LoanApplication" data-entity-2="LoanMonitoring" data-source-line="71" data-uid="lnk14" id="link_LoanApplication_LoanMonitoring"><path codeLine="71" d="M378.16,483.08 C378.16,506.13 378.16,533.41 378.16,559.05" fill="none" id="LoanApplication-LoanMonitoring" style="stroke:#2F4F4F;stroke-width:1;"/><text fill="#000000" font-family="sans-serif" font-size="13" lengthAdjust="spacing" textLength="8.271" x="369.6896" y="502.9935">1</text><text fill="#000000" font-family="sans-serif" font-size="13" lengthAdjust="spacing" textLength="8.271" x="369.8406" y="548.1072">1</text></g><!--SRC=[jPJRQjj048RlzHI3RW8kIPFR408-u1BSGgW3lHJZrTXPj0Tr3sxTuWVoS_Z5kf8gEP8bjr1wk__ixZV_76p6LOu69J21rewTCtpb7JqnhPRy1y5jPDiXy3C2c23BDaPxbKwrq0Q-l797IwapAaHjKZALC4EJBGKw-c1m5xInCVfRdxIFeYkO7GzhhhZZMa5A5aWvxeu72xWb1anxGTvOiFdnmFYQV_KX9jVUmFC2oC5y4LM8Ks-TbcHArdSm6l4Kxk59ETeKXy-B_MWKbBKN8b4eAOZBaBZQX4EIoCNf871LRqvGPNzuh_iKie2iNAAyN959jYXuojqkoT4vCkfjA7ibbbs8Q336rPiDIVkFvi89we4LRjzFXAT7zjkNfCq_N-mVtfTXZvqBgv3qnU0L2bIio7ekDBgsNO7ZnQ2ooCgANZRlxRU3IRK_TwV74xVBszxBqgQQgnsSXguBqWkNP1tA_8JzKQCQvxdW3FyFSw1HIGCt8yObYd0UE9otFGMV5ftnBnm3bQiwhaDRLhGkUQSvpnmTH2vC_AJ37ElAWRzchymvsN-nzMJpmtaz0GotMT8bRCrPzSDvI0cH6xtbOOlrw4gxi7lOqFLcndhikOBF9CgBORTzBz8CQxFURcXIhW9OiV2YPeF5Tp5SNqDyUtEZudhwet8PzKlrWcYhv-Cu45Yssu3M6OweEonrz5tSQO7e5m00]--></g></svg>