<svg xmlns="http://www.w3.org/2000/svg" xmlns:xlink="http://www.w3.org/1999/xlink" contentStyleType="text/css" data-diagram-type="CLASS" height="809px" preserveAspectRatio="none" style="width:687px;height:809px;background:#FFFFFF;" version="1.1" viewBox="0 0 687 809" width="687px" zoomAndPan="magnify"><defs/><g><!--class Customer--><g class="entity" data-entity="Customer" data-source-line="10" data-uid="ent0002" id="entity_Customer"><rect fill="#F5F5F5" height="96.8906" rx="2.5" ry="2.5" style="stroke:#2F4F4F;stroke-width:0.5;" width="157.5986" x="148.13" y="15.15"/><ellipse cx="189.0476" cy="31.15" fill="#ADD1B2" rx="11" ry="11" style="stroke:#181818;stroke-width:1;"/><path d="M192.0164,36.7906 Q191.4383,37.0875 190.7976,37.2281 Q190.157,37.3844 189.4539,37.3844 Q186.9539,37.3844 185.6258,35.7437 Q184.3133,34.0875 184.3133,30.9625 Q184.3133,27.8375 185.6258,26.1812 Q186.9539,24.525 189.4539,24.525 Q190.157,24.525 190.7976,24.6812 Q191.4539,24.8375 192.0164,25.1344 L192.0164,27.8531 Q191.3914,27.275 190.7976,27.0094 Q190.2039,26.7281 189.5789,26.7281 Q188.2351,26.7281 187.5476,27.8062 Q186.8601,28.8687 186.8601,30.9625 Q186.8601,33.0562 187.5476,34.1344 Q188.2351,35.1969 189.5789,35.1969 Q190.2039,35.1969 190.7976,34.9312 Q191.3914,34.65 192.0164,34.0719 L192.0164,36.7906 Z " fill="#000000"/><text fill="#000000" font-family="sans-serif" font-size="14" lengthAdjust="spacing" textLength="68.0039" x="208.8071" y="35.9967">Customer</text><line style="stroke:#2F4F4F;stroke-width:0.5;" x1="149.13" x2="304.7286" y1="47.15" y2="47.15"/><text fill="#000000" font-family="sans-serif" font-size="14" lengthAdjust="spacing" textLength="11.7305" x="154.13" y="64.1451">+</text><text fill="#000000" font-family="sans-serif" font-size="14" font-weight="bold" lengthAdjust="spacing" textLength="133.8682" x="165.8605" y="64.1451">id : Integer {PK}</text><text fill="#000000" font-family="sans-serif" font-size="14" lengthAdjust="spacing" textLength="123.6826" x="154.13" y="80.442">full_name : String</text><text fill="#000000" font-family="sans-serif" font-size="14" lengthAdjust="spacing" textLength="94.0078" x="154.13" y="96.7389">email : String</text><line style="stroke:#2F4F4F;stroke-width:0.5;" x1="149.13" x2="304.7286" y1="104.0406" y2="104.0406"/></g><!--class Bank--><g class="entity" data-entity="Bank" data-source-line="16" data-uid="ent0003" id="entity_Bank"><rect fill="#F5F5F5" height="113.1875" rx="2.5" ry="2.5" style="stroke:#2F4F4F;stroke-width:0.5;" width="301.6934" x="341.08" y="7"/><ellipse cx="470.0946" cy="23" fill="#ADD1B2" rx="11" ry="11" style="stroke:#181818;stroke-width:1;"/><path d="M473.0634,28.6406 Q472.4853,28.9375 471.8446,29.0781 Q471.204,29.2344 470.5009,29.2344 Q468.0009,29.2344 466.6728,27.5938 Q465.3603,25.9375 465.3603,22.8125 Q465.3603,19.6875 466.6728,18.0313 Q468.0009,16.375 470.5009,16.375 Q471.204,16.375 471.8446,16.5313 Q472.5009,16.6875 473.0634,16.9844 L473.0634,19.7031 Q472.4384,19.125 471.8446,18.8594 Q471.2509,18.5781 470.6259,18.5781 Q469.2821,18.5781 468.5946,19.6563 Q467.9071,20.7188 467.9071,22.8125 Q467.9071,24.9063 468.5946,25.9844 Q469.2821,27.0469 470.6259,27.0469 Q471.2509,27.0469 471.8446,26.7813 Q472.4384,26.5 473.0634,25.9219 L473.0634,28.6406 Z " fill="#000000"/><text fill="#000000" font-family="sans-serif" font-size="14" lengthAdjust="spacing" textLength="35.1641" x="490.5946" y="27.8467">Bank</text><line style="stroke:#2F4F4F;stroke-width:0.5;" x1="342.08" x2="641.7734" y1="39" y2="39"/><text fill="#000000" font-family="sans-serif" font-size="14" lengthAdjust="spacing" textLength="11.7305" x="347.08" y="55.9951">+</text><text fill="#000000" font-family="sans-serif" font-size="14" font-weight="bold" lengthAdjust="spacing" textLength="133.8682" x="358.8105" y="55.9951">id : Integer {PK}</text><text fill="#000000" font-family="sans-serif" font-size="14" lengthAdjust="spacing" textLength="95.1016" x="347.08" y="72.292">name : String</text><text fill="#000000" font-family="sans-serif" font-size="14" lengthAdjust="spacing" textLength="289.6934" x="347.08" y="88.5889">account_number_validity_pattern : String</text><text fill="#000000" font-family="sans-serif" font-size="14" lengthAdjust="spacing" textLength="270.9697" x="347.08" y="104.8857">cashier_check_validity_pattern : String</text><line style="stroke:#2F4F4F;stroke-width:0.5;" x1="342.08" x2="641.7734" y1="112.1875" y2="112.1875"/></g><!--class Account--><g class="entity" data-entity="Account" data-source-line="23" data-uid="ent0004" id="entity_Account"><rect fill="#F5F5F5" height="162.0781" rx="2.5" ry="2.5" style="stroke:#2F4F4F;stroke-width:0.5;" width="201.1777" x="258.34" y="180.19"/><ellipse cx="326.2926" cy="196.19" fill="#ADD1B2" rx="11" ry="11" style="stroke:#181818;stroke-width:1;"/><path d="M329.2614,201.8306 Q328.6833,202.1275 328.0426,202.2681 Q327.402,202.4244 326.6989,202.4244 Q324.1989,202.4244 322.8708,200.7838 Q321.5583,199.1275 321.5583,196.0025 Q321.5583,192.8775 322.8708,191.2213 Q324.1989,189.565 326.6989,189.565 Q327.402,189.565 328.0426,189.7213 Q328.6989,189.8775 329.2614,190.1744 L329.2614,192.8931 Q328.6364,192.315 328.0426,192.0494 Q327.4489,191.7681 326.8239,191.7681 Q325.4801,191.7681 324.7926,192.8463 Q324.1051,193.9088 324.1051,196.0025 Q324.1051,198.0963 324.7926,199.1744 Q325.4801,200.2369 326.8239,200.2369 Q327.4489,200.2369 328.0426,199.9713 Q328.6364,199.69 329.2614,199.1119 L329.2614,201.8306 Z " fill="#000000"/><text fill="#000000" font-family="sans-serif" font-size="14" lengthAdjust="spacing" textLength="56.7725" x="346.7926" y="201.0367">Account</text><line style="stroke:#2F4F4F;stroke-width:0.5;" x1="259.34" x2="458.5177" y1="212.19" y2="212.19"/><text fill="#000000" font-family="sans-serif" font-size="14" lengthAdjust="spacing" textLength="11.7305" x="264.34" y="229.1851">+</text><text fill="#000000" font-family="sans-serif" font-size="14" font-weight="bold" lengthAdjust="spacing" textLength="133.8682" x="276.0705" y="229.1851">id : Integer {PK}</text><text fill="#0000FF" font-family="sans-serif" font-size="14" lengthAdjust="spacing" textLength="189.1777" x="264.34" y="245.482">customer_id : Integer {FK}</text><text fill="#0000FF" font-family="sans-serif" font-size="14" lengthAdjust="spacing" textLength="157.6982" x="264.34" y="261.7789">bank_id : Integer {FK}</text><text fill="#000000" font-family="sans-serif" font-size="14" lengthAdjust="spacing" textLength="172.8125" x="264.34" y="278.0757">account_number : String</text><text fill="#000000" font-family="sans-serif" font-size="14" lengthAdjust="spacing" textLength="125.8223" x="264.34" y="294.3726">balance : Decimal</text><text fill="#000000" font-family="sans-serif" font-size="14" lengthAdjust="spacing" textLength="166.8994" x="264.34" y="310.6695">created_at : Timestamp</text><text fill="#000000" font-family="sans-serif" font-size="14" lengthAdjust="spacing" textLength="171.4795" x="264.34" y="326.9664">updated_at : Timestamp</text><line style="stroke:#2F4F4F;stroke-width:0.5;" x1="259.34" x2="458.5177" y1="334.2681" y2="334.2681"/></g><!--class BankingTransaction--><g class="entity" data-entity="BankingTransaction" data-source-line="33" data-uid="ent0005" id="entity_BankingTransaction"><rect fill="#F5F5F5" height="129.4844" rx="2.5" ry="2.5" style="stroke:#2F4F4F;stroke-width:0.5;" width="221.8496" x="7" y="418.56"/><ellipse cx="44.8999" cy="434.56" fill="#ADD1B2" rx="11" ry="11" style="stroke:#181818;stroke-width:1;"/><path d="M47.8687,440.2006 Q47.2905,440.4975 46.6499,440.6381 Q46.0093,440.7944 45.3062,440.7944 Q42.8062,440.7944 41.478,439.1538 Q40.1655,437.4975 40.1655,434.3725 Q40.1655,431.2475 41.478,429.5913 Q42.8062,427.935 45.3062,427.935 Q46.0093,427.935 46.6499,428.0913 Q47.3062,428.2475 47.8687,428.5444 L47.8687,431.2631 Q47.2437,430.685 46.6499,430.4194 Q46.0562,430.1381 45.4312,430.1381 Q44.0874,430.1381 43.3999,431.2163 Q42.7124,432.2788 42.7124,434.3725 Q42.7124,436.4663 43.3999,437.5444 Q44.0874,438.6069 45.4312,438.6069 Q46.0562,438.6069 46.6499,438.3413 Q47.2437,438.06 47.8687,437.4819 L47.8687,440.2006 Z " fill="#000000"/><text fill="#000000" font-family="sans-serif" font-size="14" lengthAdjust="spacing" textLength="138.9609" x="63.9888" y="439.4067">BankingTransaction</text><line style="stroke:#2F4F4F;stroke-width:0.5;" x1="8" x2="227.8496" y1="450.56" y2="450.56"/><text fill="#000000" font-family="sans-serif" font-size="14" lengthAdjust="spacing" textLength="11.7305" x="13" y="467.5551">+</text><text fill="#000000" font-family="sans-serif" font-size="14" font-weight="bold" lengthAdjust="spacing" textLength="133.8682" x="24.7305" y="467.5551">id : Integer {PK}</text><text fill="#0000FF" font-family="sans-serif" font-size="14" lengthAdjust="spacing" textLength="179.0264" x="13" y="483.852">account_id : Integer {FK}</text><text fill="#000000" font-family="sans-serif" font-size="14" lengthAdjust="spacing" textLength="172.7578" x="13" y="500.1489">transaction_type : String</text><text fill="#000000" font-family="sans-serif" font-size="14" lengthAdjust="spacing" textLength="124.7217" x="13" y="516.4457">amount : Decimal</text><text fill="#000000" font-family="sans-serif" font-size="14" lengthAdjust="spacing" textLength="209.8496" x="13" y="532.7426">transaction_date : Timestamp</text><line style="stroke:#2F4F4F;stroke-width:0.5;" x1="8" x2="227.8496" y1="540.0444" y2="540.0444"/></g><!--class LoanApplication--><g class="entity" data-entity="LoanApplication" data-source-line="41" data-uid="ent0006" id="entity_LoanApplication"><rect fill="#F5F5F5" height="162.0781" rx="2.5" ry="2.5" style="stroke:#2F4F4F;stroke-width:0.5;" width="191.0264" x="263.41" y="402.27"/><ellipse cx="299.5534" cy="418.27" fill="#ADD1B2" rx="11" ry="11" style="stroke:#181818;stroke-width:1;"/><path d="M302.5222,423.9106 Q301.944,424.2075 301.3034,424.3481 Q300.6628,424.5044 299.9597,424.5044 Q297.4597,424.5044 296.1315,422.8638 Q294.819,421.2075 294.819,418.0825 Q294.819,414.9575 296.1315,413.3013 Q297.4597,411.645 299.9597,411.645 Q300.6628,411.645 301.3034,411.8013 Q301.9597,411.9575 302.5222,412.2544 L302.5222,414.9731 Q301.8972,414.395 301.3034,414.1294 Q300.7097,413.8481 300.0847,413.8481 Q298.7409,413.8481 298.0534,414.9263 Q297.3659,415.9888 297.3659,418.0825 Q297.3659,420.1763 298.0534,421.2544 Q298.7409,422.3169 300.0847,422.3169 Q300.7097,422.3169 301.3034,422.0513 Q301.8972,421.77 302.5222,421.1919 L302.5222,423.9106 Z " fill="#000000"/><text fill="#000000" font-family="sans-serif" font-size="14" lengthAdjust="spacing" textLength="112.041" x="318.2519" y="423.1167">LoanApplication</text><line style="stroke:#2F4F4F;stroke-width:0.5;" x1="264.41" x2="453.4364" y1="434.27" y2="434.27"/><text fill="#000000" font-family="sans-serif" font-size="14" lengthAdjust="spacing" textLength="11.7305" x="269.41" y="451.2651">+</text><text fill="#000000" font-family="sans-serif" font-size="14" font-weight="bold" lengthAdjust="spacing" textLength="133.8682" x="281.1405" y="451.2651">id : Integer {PK}</text><text fill="#0000FF" font-family="sans-serif" font-size="14" lengthAdjust="spacing" textLength="179.0264" x="269.41" y="467.562">account_id : Integer {FK}</text><text fill="#000000" font-family="sans-serif" font-size="14" lengthAdjust="spacing" textLength="123.5801" x="269.41" y="483.8589">loan_type : String</text><text fill="#000000" font-family="sans-serif" font-size="14" lengthAdjust="spacing" textLength="161.6289" x="269.41" y="500.1557">loan_amount : Decimal</text><text fill="#000000" font-family="sans-serif" font-size="14" lengthAdjust="spacing" textLength="159.3047" x="269.41" y="516.4526">loan_description : Text</text><text fill="#000000" font-family="sans-serif" font-size="14" lengthAdjust="spacing" textLength="98.417" x="269.41" y="532.7495">status : String</text><text fill="#000000" font-family="sans-serif" font-size="14" lengthAdjust="spacing" textLength="166.8994" x="269.41" y="549.0464">created_at : Timestamp</text><line style="stroke:#2F4F4F;stroke-width:0.5;" x1="264.41" x2="453.4364" y1="556.3481" y2="556.3481"/></g><!--class CashierCheck--><g class="entity" data-entity="CashierCheck" data-source-line="51" data-uid="ent0007" id="entity_CashierCheck"><rect fill="#F5F5F5" height="162.0781" rx="2.5" ry="2.5" style="stroke:#2F4F4F;stroke-width:0.5;" width="191.0264" x="489.41" y="402.27"/><ellipse cx="532.8409" cy="418.27" fill="#ADD1B2" rx="11" ry="11" style="stroke:#181818;stroke-width:1;"/><path d="M535.8096,423.9106 Q535.2315,424.2075 534.5909,424.3481 Q533.9502,424.5044 533.2471,424.5044 Q530.7471,424.5044 529.419,422.8638 Q528.1065,421.2075 528.1065,418.0825 Q528.1065,414.9575 529.419,413.3013 Q530.7471,411.645 533.2471,411.645 Q533.9502,411.645 534.5909,411.8013 Q535.2471,411.9575 535.8096,412.2544 L535.8096,414.9731 Q535.1846,414.395 534.5909,414.1294 Q533.9971,413.8481 533.3721,413.8481 Q532.0284,413.8481 531.3409,414.9263 Q530.6534,415.9888 530.6534,418.0825 Q530.6534,420.1763 531.3409,421.2544 Q532.0284,422.3169 533.3721,422.3169 Q533.9971,422.3169 534.5909,422.0513 Q535.1846,421.77 535.8096,421.1919 L535.8096,423.9106 Z " fill="#000000"/><text fill="#000000" font-family="sans-serif" font-size="14" lengthAdjust="spacing" textLength="95.8467" x="553.1588" y="423.1167">CashierCheck</text><line style="stroke:#2F4F4F;stroke-width:0.5;" x1="490.41" x2="679.4364" y1="434.27" y2="434.27"/><text fill="#000000" font-family="sans-serif" font-size="14" lengthAdjust="spacing" textLength="11.7305" x="495.41" y="451.2651">+</text><text fill="#000000" font-family="sans-serif" font-size="14" font-weight="bold" lengthAdjust="spacing" textLength="133.8682" x="507.1405" y="451.2651">id : Integer {PK}</text><text fill="#0000FF" font-family="sans-serif" font-size="14" lengthAdjust="spacing" textLength="179.0264" x="495.41" y="467.562">account_id : Integer {FK}</text><text fill="#000000" font-family="sans-serif" font-size="14" lengthAdjust="spacing" textLength="158.0264" x="495.41" y="483.8589">check_number : String</text><text fill="#000000" font-family="sans-serif" font-size="14" lengthAdjust="spacing" textLength="166.7285" x="495.41" y="500.1557">issue_date : Timestamp</text><text fill="#000000" font-family="sans-serif" font-size="14" lengthAdjust="spacing" textLength="124.7217" x="495.41" y="516.4526">amount : Decimal</text><text fill="#000000" font-family="sans-serif" font-size="14" lengthAdjust="spacing" textLength="122.0215" x="495.41" y="532.7495">is_valid : Boolean</text><text fill="#000000" font-family="sans-serif" font-size="14" lengthAdjust="spacing" textLength="166.8994" x="495.41" y="549.0464">created_at : Timestamp</text><line style="stroke:#2F4F4F;stroke-width:0.5;" x1="490.41" x2="679.4364" y1="556.3481" y2="556.3481"/></g><!--class LoanMonitoring--><g class="entity" data-entity="LoanMonitoring" data-source-line="61" data-uid="ent0008" id="entity_LoanMonitoring"><rect fill="#F5F5F5" height="178.375" rx="2.5" ry="2.5" style="stroke:#2F4F4F;stroke-width:0.5;" width="249.3848" x="234.23" y="624.34"/><ellipse cx="300.3301" cy="640.34" fill="#ADD1B2" rx="11" ry="11" style="stroke:#181818;stroke-width:1;"/><path d="M303.2988,645.9806 Q302.7207,646.2775 302.0801,646.4181 Q301.4395,646.5744 300.7363,646.5744 Q298.2363,646.5744 296.9082,644.9338 Q295.5957,643.2775 295.5957,640.1525 Q295.5957,637.0275 296.9082,635.3713 Q298.2363,633.715 300.7363,633.715 Q301.4395,633.715 302.0801,633.8713 Q302.7363,634.0275 303.2988,634.3244 L303.2988,637.0431 Q302.6738,636.465 302.0801,636.1994 Q301.4863,635.9181 300.8613,635.9181 Q299.5176,635.9181 298.8301,636.9963 Q298.1426,638.0588 298.1426,640.1525 Q298.1426,642.2463 298.8301,643.3244 Q299.5176,644.3869 300.8613,644.3869 Q301.4863,644.3869 302.0801,644.1213 Q302.6738,643.84 303.2988,643.2619 L303.2988,645.9806 Z " fill="#000000"/><text fill="#000000" font-family="sans-serif" font-size="14" lengthAdjust="spacing" textLength="108.6846" x="320.8301" y="645.1867">LoanMonitoring</text><line style="stroke:#2F4F4F;stroke-width:0.5;" x1="235.23" x2="482.6148" y1="656.34" y2="656.34"/><text fill="#000000" font-family="sans-serif" font-size="14" lengthAdjust="spacing" textLength="11.7305" x="240.23" y="673.3351">+</text><text fill="#000000" font-family="sans-serif" font-size="14" font-weight="bold" lengthAdjust="spacing" textLength="133.8682" x="251.9605" y="673.3351">id : Integer {PK}</text><text fill="#0000FF" font-family="sans-serif" font-size="14" lengthAdjust="spacing" textLength="237.3848" x="240.23" y="689.632">loan_application_id : Integer {FK}</text><text fill="#000000" font-family="sans-serif" font-size="14" lengthAdjust="spacing" textLength="207.1904" x="240.23" y="705.9289">monitoring_date : Timestamp</text><text fill="#000000" font-family="sans-serif" font-size="14" lengthAdjust="spacing" textLength="130.4639" x="240.23" y="722.2257">risk_status : String</text><text fill="#000000" font-family="sans-serif" font-size="14" lengthAdjust="spacing" textLength="222.332" x="240.23" y="738.5226">check_validation_status : String</text><text fill="#000000" font-family="sans-serif" font-size="14" lengthAdjust="spacing" textLength="200.9629" x="240.23" y="754.8195">loan_provider_status : String</text><text fill="#000000" font-family="sans-serif" font-size="14" lengthAdjust="spacing" textLength="184.1465" x="240.23" y="771.1164">notification_status : String</text><text fill="#000000" font-family="sans-serif" font-size="14" lengthAdjust="spacing" textLength="171.3428" x="240.23" y="787.4132">customer_status : String</text><line style="stroke:#2F4F4F;stroke-width:0.5;" x1="235.23" x2="482.6148" y1="794.715" y2="794.715"/></g><!--link Customer to Account--><g class="link" data-entity-1="Customer" data-entity-2="Account" data-source-line="73" data-uid="lnk9" id="link_Customer_Account"><path codeLine="73" d="M259.22,112.45 C272.88,132.7 289.17,156.85 304.59,179.7" fill="none" id="Customer-Account" style="stroke:#2F4F4F;stroke-width:1;"/><text fill="#000000" font-family="sans-serif" font-size="13" lengthAdjust="spacing" textLength="8.271" x="255.0398" y="132.0985">1</text><text fill="#000000" font-family="sans-serif" font-size="13" lengthAdjust="spacing" textLength="24.7749" x="274.9223" y="169.1217">0..n</text></g><!--link Bank to Account--><g class="link" data-entity-1="Bank" data-entity-2="Account" data-source-line="74" data-uid="lnk10" id="link_Bank_Account"><path codeLine="74" d="M453.81,120.66 C441.3,139.06 427.14,159.89 413.64,179.74" fill="none" id="Bank-Account" style="stroke:#2F4F4F;stroke-width:1;"/><text fill="#000000" font-family="sans-serif" font-size="13" lengthAdjust="spacing" textLength="8.271" x="440.9559" y="140.2">1</text><text fill="#000000" font-family="sans-serif" font-size="13" lengthAdjust="spacing" textLength="24.7749" x="393.3438" y="169.1651">0..n</text></g><!--link Account to BankingTransaction--><g class="link" data-entity-1="Account" data-entity-2="BankingTransaction" data-source-line="75" data-uid="lnk11" id="link_Account_BankingTransaction"><path codeLine="75" d="M270.9,342.62 C243.6,367.54 213.9,394.66 188,418.32" fill="none" id="Account-BankingTransaction" style="stroke:#2F4F4F;stroke-width:1;"/><text fill="#000000" font-family="sans-serif" font-size="13" lengthAdjust="spacing" textLength="8.271" x="255.0029" y="362.3317">1</text><text fill="#000000" font-family="sans-serif" font-size="13" lengthAdjust="spacing" textLength="24.7749" x="170.3944" y="407.4664">0..n</text></g><!--link Account to CashierCheck--><g class="link" data-entity-1="Account" data-entity-2="CashierCheck" data-source-line="76" data-uid="lnk12" id="link_Account_CashierCheck"><path codeLine="76" d="M441.48,342.62 C461.27,361.89 482.42,382.48 502.22,401.77" fill="none" id="Account-CashierCheck" style="stroke:#2F4F4F;stroke-width:1;"/><text fill="#000000" font-family="sans-serif" font-size="13" lengthAdjust="spacing" textLength="8.271" x="440.2421" y="362.3317">1</text><text fill="#000000" font-family="sans-serif" font-size="13" lengthAdjust="spacing" textLength="24.7749" x="470.1147" y="391.1908">0..n</text></g><!--link Account to LoanApplication--><g class="link" data-entity-1="Account" data-entity-2="LoanApplication" data-source-line="77" data-uid="lnk13" id="link_Account_LoanApplication"><path codeLine="77" d="M358.92,342.62 C358.92,361.89 358.92,382.48 358.92,401.77" fill="none" id="Account-LoanApplication" style="stroke:#2F4F4F;stroke-width:1;"/><text fill="#000000" font-family="sans-serif" font-size="13" lengthAdjust="spacing" textLength="8.271" x="350.5871" y="362.3317">1</text><text fill="#000000" font-family="sans-serif" font-size="13" lengthAdjust="spacing" textLength="24.7749" x="333.9218" y="391.1908">0..n</text></g><!--link LoanApplication to LoanMonitoring--><g class="link" data-entity-1="LoanApplication" data-entity-2="LoanMonitoring" data-source-line="78" data-uid="lnk14" id="link_LoanApplication_LoanMonitoring"><path codeLine="78" d="M358.92,564.77 C358.92,583.89 358.92,604.4 358.92,623.86" fill="none" id="LoanApplication-LoanMonitoring" style="stroke:#2F4F4F;stroke-width:1;"/><text fill="#000000" font-family="sans-serif" font-size="13" lengthAdjust="spacing" textLength="8.271" x="350.5876" y="584.4877">1</text><text fill="#000000" font-family="sans-serif" font-size="13" lengthAdjust="spacing" textLength="8.271" x="350.6119" y="613.1892">1</text></g><!--SRC=[jLJRQjj047tNLon-2RZazXf2m1TIWbi8TQ2FOhmQsuDMk-fUtBZ57-Jly8zr9CKNoRAJGliwvsXqpipiSIdf72naGYfmhkUzfKdm-2ID7jCl53UHgrF4xqY8FiXqPatGoS0eOyNtENaSPoR50ZGsGLi1Gx3fM877pnQMZFMiDJ_Re5KKNOZXPZqbJPwC5WawWTgJtwoTW0LA8KrG6AmJBj-i9KtfHs1ERe8LpoE1NZoEeahY83XlChIbra-YswL4t8adxN5M59z7gswNaMbGAjQG8ODZDgvdNCGCIEqBhAlgsGUTljElsGeaIzO-rY6Re8qNe2WXlunpy1wjFgHAS7DYZfoZJCymTt9wLUzt5DtBOjHtVHNmGRuD9QvJ7qUh- -kIzj3uOCAEpvBh_WxjJ421biKmXYWf0rLOjCZBJcBmN7wX39s7B6SWv4aRK9iyjtsne1t8yZW-xdghyPmFl-yS-sLUts5MZldGo26zKDwk-ei1tSjpHHB-WsJ5tO-qbiKMmMMTtvEqb9TQM32-UaPOim-kTeZjMzhP6bI7EYZkz1zxgcx_-9Z8kO37asxT3RdgyN2nRun2q1_mLApgg-7SCSKV_y9LDV3zai_QotP_QFDYoQLnophsUL3zuPXIYiYjMH2dRWkkZUUibAS-tyL24oeJ-HkgyaFEujV29iVyDet19gHPM17GqIvnExSTSNafEZTNLxgpJQce3CzsQ1jaTVJupPyW7jxZ2KhZ9KRDbxbbttOQbn3z0G00]--></g></svg>